<svg width="36" height="36" viewBox="0 0 36 36" fill="none" xmlns="http://www.w3.org/2000/svg">
<circle cx="18" cy="18" r="18" fill="url(#paint0_linear_303_21293)"/>
<path d="M18 6.75C11.79 6.75 6.75 11.79 6.75 18C6.75 24.21 11.79 29.25 18 29.25C24.21 29.25 29.25 24.21 29.25 18C29.25 11.79 24.21 6.75 18 6.75ZM16.875 26.9213C12.4313 26.37 9 22.59 9 18C9 17.3025 9.09 16.6388 9.23625 15.9863L14.625 21.375V22.5C14.625 23.7375 15.6375 24.75 16.875 24.75V26.9213ZM24.6375 24.0637C24.345 23.1525 23.5125 22.5 22.5 22.5H21.375V19.125C21.375 18.5063 20.8688 18 20.25 18H13.5V15.75H15.75C16.3688 15.75 16.875 15.2437 16.875 14.625V12.375H19.125C20.3625 12.375 21.375 11.3625 21.375 10.125V9.66375C24.6713 11.0025 27 14.2312 27 18C27 20.34 26.1 22.4662 24.6375 24.0637Z" fill="white"/>
<defs>
<linearGradient id="paint0_linear_303_21293" x1="36" y1="1.93845" x2="-21.19" y2="8.84615" gradientUnits="userSpaceOnUse">
<stop stop-color="#1FA7D9"/>
<stop offset="1" stop-color="#B2F000"/>
</linearGradient>
</defs>
</svg>