<svg xmlns="http://www.w3.org/2000/svg" xmlns:xlink="http://www.w3.org/1999/xlink" viewBox="0 0 433.24 370.69"><defs><style>.cls-1{isolation:isolate;}.cls-2,.cls-34,.cls-4,.cls-41{fill:#e4e7fb;}.cls-2,.cls-41{opacity:0.5;}.cls-3{fill:#cdd0e0;}.cls-5{fill:#0b4656;}.cls-6{fill:#063444;}.cls-7{fill:#0d6f58;}.cls-8{fill:#6fa69d;}.cls-9{fill:#92d050;}.cls-10,.cls-18,.cls-19,.cls-35{fill:#fff;}.cls-11{fill:url(#New_Gradient_Swatch_copy_4);}.cls-12{fill:#dbdbdb;}.cls-13{fill:#ededed;}.cls-14{fill:#81c5e8;}.cls-15{fill:#002060;}.cls-16{fill:url(#New_Gradient_Swatch);}.cls-17{fill:#143b7a;}.cls-18{opacity:0.2;}.cls-19{opacity:0.4;}.cls-20{fill:#ffdc79;}.cls-21{fill:#ffe6a6;}.cls-22{fill:url(#New_Gradient_Swatch-2);}.cls-23{fill:#346289;}.cls-24{fill:#cfd2e5;}.cls-25{fill:url(#New_Gradient_Swatch_copy_3);}.cls-26{fill:#6daa2d;}.cls-27{fill:url(#New_Gradient_Swatch_copy);}.cls-28{fill:url(#New_Gradient_Swatch-3);}.cls-29{fill:url(#New_Gradient_Swatch_copy_3-2);}.cls-30{fill:url(#New_Gradient_Swatch_copy_4-2);}.cls-31{fill:url(#New_Gradient_Swatch_copy_3-3);}.cls-32{fill:url(#New_Gradient_Swatch_copy_4-3);}.cls-33{fill:#48d7e5;}.cls-34{opacity:0.3;}.cls-35,.cls-53{opacity:0.1;}.cls-36{fill:url(#New_Gradient_Swatch_copy_2);}.cls-37{fill:url(#New_Gradient_Swatch-4);}.cls-38{fill:url(#New_Gradient_Swatch-5);}.cls-39{fill:url(#New_Gradient_Swatch_copy-2);}.cls-40{fill:url(#New_Gradient_Swatch-6);}.cls-41{mix-blend-mode:hard-light;}.cls-42{fill:url(#New_Gradient_Swatch_copy_4-4);}.cls-43{fill:#c6c9db;}.cls-44{fill:#b2cfd1;}.cls-45{fill:url(#New_Gradient_Swatch_copy_4-5);}.cls-46{fill:#ebf6f7;}.cls-47{fill:url(#New_Gradient_Swatch_copy-3);}.cls-48{fill:url(#New_Gradient_Swatch-7);}.cls-49{fill:url(#New_Gradient_Swatch_copy-4);}.cls-50{fill:url(#New_Gradient_Swatch_copy-5);}.cls-51{fill:url(#New_Gradient_Swatch-8);}.cls-52{fill:url(#New_Gradient_Swatch_copy_3-4);}.cls-53{fill:url(#linear-gradient);}.cls-54{fill:url(#New_Gradient_Swatch_copy_3-5);}.cls-55{fill:url(#New_Gradient_Swatch-9);}.cls-56{fill:url(#New_Gradient_Swatch_copy_3-6);}</style><linearGradient id="New_Gradient_Swatch_copy_4" x1="85.25" y1="167.8" x2="97.24" y2="167.8" gradientUnits="userSpaceOnUse"><stop offset="0" stop-color="#f1f4fe"/><stop offset="0.58" stop-color="#f7f9fe"/><stop offset="1" stop-color="#fff"/></linearGradient><linearGradient id="New_Gradient_Swatch" x1="371.82" y1="195.43" x2="403.95" y2="195.43" gradientUnits="userSpaceOnUse"><stop offset="0.17" stop-color="#346289"/><stop offset="0.5" stop-color="#1e4778"/><stop offset="1" stop-color="#002060"/></linearGradient><linearGradient id="New_Gradient_Swatch-2" x1="94.91" y1="334.43" x2="147.15" y2="334.43" xlink:href="#New_Gradient_Swatch"/><linearGradient id="New_Gradient_Swatch_copy_3" x1="139.13" y1="348.17" x2="147.2" y2="348.17" gradientUnits="userSpaceOnUse"><stop offset="0.17" stop-color="#6fa69d"/><stop offset="0.65" stop-color="#348573"/><stop offset="1" stop-color="#0d6f58"/></linearGradient><linearGradient id="New_Gradient_Swatch_copy" x1="182.83" y1="342.19" x2="205.17" y2="342.19" gradientUnits="userSpaceOnUse"><stop offset="0.17" stop-color="#92d050"/><stop offset="1" stop-color="#6daa2d"/></linearGradient><linearGradient id="New_Gradient_Swatch-3" x1="160.49" y1="355.63" x2="182.83" y2="355.63" xlink:href="#New_Gradient_Swatch"/><linearGradient id="New_Gradient_Swatch_copy_3-2" x1="205.17" y1="328.76" x2="227.51" y2="328.76" xlink:href="#New_Gradient_Swatch_copy_3"/><linearGradient id="New_Gradient_Swatch_copy_4-2" x1="140.81" y1="155.37" x2="272.78" y2="155.37" xlink:href="#New_Gradient_Swatch_copy_4"/><linearGradient id="New_Gradient_Swatch_copy_3-3" x1="143.71" y1="156.27" x2="270.06" y2="156.27" xlink:href="#New_Gradient_Swatch_copy_3"/><linearGradient id="New_Gradient_Swatch_copy_4-3" x1="143.71" y1="244.47" x2="368.09" y2="244.47" xlink:href="#New_Gradient_Swatch_copy_4"/><linearGradient id="New_Gradient_Swatch_copy_2" x1="289.11" y1="128.58" x2="327.27" y2="128.58" gradientUnits="userSpaceOnUse"><stop offset="0.17" stop-color="#92d050"/><stop offset="1" stop-color="#647f54"/></linearGradient><linearGradient id="New_Gradient_Swatch-4" x1="210.86" y1="22.15" x2="236.58" y2="22.15" xlink:href="#New_Gradient_Swatch"/><linearGradient id="New_Gradient_Swatch-5" x1="0" y1="185.32" x2="28.94" y2="185.32" xlink:href="#New_Gradient_Swatch"/><linearGradient id="New_Gradient_Swatch_copy-2" x1="65.4" y1="115.25" x2="91.12" y2="115.25" xlink:href="#New_Gradient_Swatch_copy"/><linearGradient id="New_Gradient_Swatch-6" x1="284.76" y1="56.66" x2="331.63" y2="56.66" xlink:href="#New_Gradient_Swatch"/><linearGradient id="New_Gradient_Swatch_copy_4-4" x1="157.34" y1="178.1" x2="376.3" y2="178.1" xlink:href="#New_Gradient_Swatch_copy_4"/><linearGradient id="New_Gradient_Swatch_copy_4-5" x1="157.34" y1="147.7" x2="269.42" y2="147.7" xlink:href="#New_Gradient_Swatch_copy_4"/><linearGradient id="New_Gradient_Swatch_copy-3" x1="180.85" y1="113.46" x2="216.85" y2="113.46" xlink:href="#New_Gradient_Swatch_copy"/><linearGradient id="New_Gradient_Swatch-7" x1="209.11" y1="200.83" x2="264.31" y2="200.83" xlink:href="#New_Gradient_Swatch"/><linearGradient id="New_Gradient_Swatch_copy-4" x1="181.52" y1="186.78" x2="212.86" y2="186.78" xlink:href="#New_Gradient_Swatch_copy"/><linearGradient id="New_Gradient_Swatch_copy-5" x1="181.52" y1="176.74" x2="212.86" y2="176.74" xlink:href="#New_Gradient_Swatch_copy"/><linearGradient id="New_Gradient_Swatch-8" x1="181.52" y1="234.15" x2="208.2" y2="234.15" xlink:href="#New_Gradient_Swatch"/><linearGradient id="New_Gradient_Swatch_copy_3-4" x1="222.21" y1="222.09" x2="289.48" y2="222.09" xlink:href="#New_Gradient_Swatch_copy_3"/><linearGradient id="linear-gradient" x1="314.47" y1="263.83" x2="356.65" y2="269.75" gradientUnits="userSpaceOnUse"><stop offset="0" stop-color="#076d6d"/><stop offset="1" stop-color="#076d6d" stop-opacity="0"/></linearGradient><linearGradient id="New_Gradient_Swatch_copy_3-5" x1="320.61" y1="208.13" x2="431.21" y2="208.13" xlink:href="#New_Gradient_Swatch_copy_3"/><linearGradient id="New_Gradient_Swatch-9" x1="411.76" y1="168.47" x2="431.33" y2="168.47" xlink:href="#New_Gradient_Swatch"/><linearGradient id="New_Gradient_Swatch_copy_3-6" x1="103.42" y1="303.76" x2="182.48" y2="303.76" xlink:href="#New_Gradient_Swatch_copy_3"/></defs><title>join-us</title><g class="cls-1"><g id="Layer_2" data-name="Layer 2"><g id="OBJECTS"><path class="cls-2" d="M124.17,266.81,55.55,308.93a.71.71,0,0,0,0,1.21l1.62,1a2.75,2.75,0,0,0,2.85,0l68-41.76a.76.76,0,0,0,0-1.31l-2-1.22A1.77,1.77,0,0,0,124.17,266.81Z"/><path class="cls-3" d="M93.59,163.87l-.8.48c-1.18.71-2,.09-1.72-1.24h0c.15-.67.07-1.28-.87-1.44a1.41,1.41,0,0,0-1,.25,4,4,0,0,0-1.81,3,1.62,1.62,0,0,0,.05.4h0c.33,1-.53,2.6-1.72,3.31l-.8.48a3.55,3.55,0,0,0-1.65,2.65V172l12-7.2v-.31C95.25,163.62,94.5,163.32,93.59,163.87Zm-4.34.86c-.54.33-1,.15-1-.38a2.11,2.11,0,0,1,1-1.57c.54-.32,1-.15,1,.39A2.07,2.07,0,0,1,89.25,164.73Z"/><path class="cls-4" d="M103.83,163.77,74.67,181.29v-.75c0-2.22,1.8-5.1,4-6.44l21.11-12.68c2.22-1.34,4-.62,4,1.6Z"/><path class="cls-5" d="M123.63,153.19l-2.46-1h0a1.53,1.53,0,0,0-1.39.11L54,192.77A3.8,3.8,0,0,0,52.13,196V303.16a1.79,1.79,0,0,0,.94,1.59h0a1.78,1.78,0,0,0,.4.17l2.21.91-.29-1.4,65.06-40a3.56,3.56,0,0,0,1.71-3.05Z"/><path class="cls-6" d="M124.53,154.61V262.34a3.62,3.62,0,0,1-1.71,3.06L57.28,305.68a1.83,1.83,0,0,1-2.78-1.56V197.29a4.39,4.39,0,0,1,2.08-3.73l65.55-40.29A1.58,1.58,0,0,1,124.53,154.61Z"/><path class="cls-7" d="M122.13,157.32V261.74a1.33,1.33,0,0,1-.64,1.14L57.82,302a.61.61,0,0,1-.93-.53V197.24a2,2,0,0,1,.93-1.67l63.23-38.86A.71.71,0,0,1,122.13,157.32Z"/><path class="cls-8" d="M86,184.88v39a.51.51,0,0,1-.24.43L62,238.85a.23.23,0,0,1-.35-.19V199.77a.72.72,0,0,1,.35-.62l23.58-14.49A.27.27,0,0,1,86,184.88Z"/><path class="cls-8" d="M86,231.18v3.73a.5.5,0,0,1-.24.43L62,249.94a.23.23,0,0,1-.35-.2v-3.67a.71.71,0,0,1,.35-.62L85.58,231A.27.27,0,0,1,86,231.18Z"/><path class="cls-7" d="M83.5,218.89v3a.39.39,0,0,1-.19.34L64.42,233.81a.18.18,0,0,1-.28-.15v-2.92a.58.58,0,0,1,.27-.5l18.77-11.53A.21.21,0,0,1,83.5,218.89Z"/><path class="cls-8" d="M86,238.92v3.74a.49.49,0,0,1-.24.42L62,257.68a.23.23,0,0,1-.35-.2v-3.67a.72.72,0,0,1,.35-.62L85.58,238.7A.27.27,0,0,1,86,238.92Z"/><path class="cls-8" d="M80.59,250v3.74a.51.51,0,0,1-.24.42L62,265.42a.23.23,0,0,1-.35-.19v-3.67a.74.74,0,0,1,.35-.63l18.18-11.17A.27.27,0,0,1,80.59,250Z"/><path class="cls-8" d="M111.91,226.35v3.74a.49.49,0,0,1-.24.42L93.32,241.79a.23.23,0,0,1-.35-.19v-3.67a.74.74,0,0,1,.35-.63l18.18-11.17A.27.27,0,0,1,111.91,226.35Z"/><path class="cls-8" d="M111.91,237.35v3.74a.49.49,0,0,1-.24.42L93.32,252.79a.23.23,0,0,1-.35-.19v-3.67a.71.71,0,0,1,.35-.62l18.18-11.18A.27.27,0,0,1,111.91,237.35Z"/><path class="cls-8" d="M86,254.41v3.73a.5.5,0,0,1-.24.43L62,273.17a.23.23,0,0,1-.35-.2V269.3a.72.72,0,0,1,.35-.62l23.58-14.5A.27.27,0,0,1,86,254.41Z"/><path class="cls-8" d="M69.32,278v5.41A.72.72,0,0,1,69,284l-5,3.06a.33.33,0,0,1-.5-.28v-5.32a1.08,1.08,0,0,1,.5-.91l4.8-2.91A.38.38,0,0,1,69.32,278Z"/><path class="cls-9" d="M77.66,272.86v5.41a.73.73,0,0,1-.35.62l-5,3.06a.33.33,0,0,1-.5-.28v-5.33a1.08,1.08,0,0,1,.5-.9l4.8-2.91A.39.39,0,0,1,77.66,272.86Z"/><path class="cls-9" d="M86,267.77v5.41a.72.72,0,0,1-.35.62l-5,3.06a.33.33,0,0,1-.51-.28v-5.33a1.05,1.05,0,0,1,.5-.9l4.8-2.91A.39.39,0,0,1,86,267.77Z"/><path class="cls-8" d="M107.74,171.86v1.42a.52.52,0,0,1-.24.43l-15.9,9.78a.23.23,0,0,1-.35-.2v-1.36a.73.73,0,0,1,.34-.62l15.74-9.68A.27.27,0,0,1,107.74,171.86Z"/><path class="cls-8" d="M101.9,179.57V181a.49.49,0,0,1-.24.42L91.6,187.64a.23.23,0,0,1-.35-.2v-1.36a.73.73,0,0,1,.34-.62l9.9-6.12A.27.27,0,0,1,101.9,179.57Z"/><path class="cls-8" d="M115.58,175.35v1.42a.5.5,0,0,1-.23.42L91.6,191.79a.23.23,0,0,1-.35-.19v-1.37a.75.75,0,0,1,.34-.62l23.59-14.49A.26.26,0,0,1,115.58,175.35Z"/><path class="cls-8" d="M113.47,180.76v1.42a.51.51,0,0,1-.24.43L91.6,195.94a.23.23,0,0,1-.35-.19v-1.36a.75.75,0,0,1,.34-.63l21.47-13.23A.27.27,0,0,1,113.47,180.76Z"/><path class="cls-8" d="M104,190.74v1.42a.52.52,0,0,1-.24.43l-12.19,7.5a.22.22,0,0,1-.35-.19v-1.36a.72.72,0,0,1,.34-.62l12-7.41A.27.27,0,0,1,104,190.74Z"/><path class="cls-8" d="M115.58,187.8v1.42a.52.52,0,0,1-.23.43L91.6,204.24a.22.22,0,0,1-.35-.19v-1.36a.72.72,0,0,1,.34-.62l23.59-14.5A.26.26,0,0,1,115.58,187.8Z"/><path class="cls-8" d="M115.58,192v1.42a.52.52,0,0,1-.23.43L91.6,208.39a.22.22,0,0,1-.35-.19v-1.36a.73.73,0,0,1,.34-.62l23.59-14.5A.26.26,0,0,1,115.58,192Z"/><path class="cls-8" d="M109.89,199.63v1.42a.49.49,0,0,1-.24.42L91.6,212.55a.23.23,0,0,1-.35-.2V211a.73.73,0,0,1,.34-.62l17.89-11A.27.27,0,0,1,109.89,199.63Z"/><path class="cls-8" d="M115.58,200.25v1.42a.51.51,0,0,1-.23.43L91.6,216.7a.23.23,0,0,1-.35-.2v-1.36a.73.73,0,0,1,.34-.62L115.18,200A.26.26,0,0,1,115.58,200.25Z"/><path class="cls-8" d="M115.58,204.4v1.42a.51.51,0,0,1-.23.43L91.6,220.85a.23.23,0,0,1-.35-.2v-1.36a.73.73,0,0,1,.34-.62l23.59-14.49A.26.26,0,0,1,115.58,204.4Z"/><path class="cls-10" d="M77.82,202c0,2.21-1.79,6.73-4,8.11s-4-.9-4-3.11,1.79-5.12,4-6.5S77.82,199.78,77.82,202Z"/><path class="cls-10" d="M83.5,214.37V215l-19.36,12.1v-.65c0-5.35,4.33-12.39,9.68-15.73,2.67-1.67,5.09-2.1,6.84-1.45S83.5,211.7,83.5,214.37Z"/><path class="cls-10" d="M105.83,164.73,76.67,182.25v-.75c0-2.22,1.8-5.11,4-6.44l21.11-12.69c2.23-1.33,4-.61,4,1.61Z"/><path class="cls-11" d="M95.59,164.83l-.8.48c-1.19.71-2,.09-1.72-1.24h0c.15-.67.07-1.28-.87-1.45a1.45,1.45,0,0,0-1,.26,4,4,0,0,0-1.81,3,1.62,1.62,0,0,0,.05.4h0c.32.95-.54,2.6-1.72,3.31l-.8.48a3.53,3.53,0,0,0-1.66,2.65V173l12-7.2v-.31C97.24,164.57,96.5,164.28,95.59,164.83Zm-4.34.86c-.54.32-1,.15-1-.39a2.09,2.09,0,0,1,1-1.56c.54-.32,1-.15,1,.39A2.08,2.08,0,0,1,91.25,165.69Z"/><path class="cls-8" d="M115.58,183.59V185a.51.51,0,0,1-.23.43l-9.76,6.06a.23.23,0,0,1-.35-.2v-1.36a.74.74,0,0,1,.35-.62l9.59-6A.27.27,0,0,1,115.58,183.59Z"/><path class="cls-2" d="M405.78,212.45a.46.46,0,0,0,0-.79L374.14,192.2s0,0-.07,0a.14.14,0,0,0-.07-.06l-.19-.12a1.19,1.19,0,0,1-.15-.09,3.84,3.84,0,0,0-1-.26,3.45,3.45,0,0,0-1.89.37L366,189c2.55-2.06,4.08-4.6,4.17-7.39l.12-4c.21-7.34-9.78-13.61-22.31-14s-22.72,5.2-23.07,12.5l0,0v.21l-.12,3.94v0l0,.62h0c.35,7.08,10.12,13,22.31,13.36a33.9,33.9,0,0,0,14-2.39,2,2,0,0,0,.24.26,2.59,2.59,0,0,0,.31.19l6.36,4a4.44,4.44,0,0,0,.24,2,3.18,3.18,0,0,0,1,1.42,2.64,2.64,0,0,0,.54.35l27.06,16.63a1.69,1.69,0,0,0,1.75,0Z"/><path class="cls-12" d="M370.73,167l-5.37-5.58-15.48-3.83-15.68,2.92-5.69,5.25L327,169l2.25.79s2.64-10.65,20.54-10.13S369.73,171,369.73,171l2.28-.65Z"/><path class="cls-13" d="M372,171.6a13.56,13.56,0,0,0-4.5-5.43,7.77,7.77,0,0,1,1.55,4.77c-.19,6.44-9.25,11.4-20.23,11.08s-19.74-5.81-19.55-12.25a7.8,7.8,0,0,1,1.83-4.67,13.16,13.16,0,0,0-5,5.65l-.54-1.27-.13,4.31h0l0,.66,0,0c.34,7.38,10.53,13.55,23.23,13.93,13.06.38,23.83-5.52,24.06-13.18l.12-4.14Z"/><path class="cls-14" d="M349.58,156.48c-13.07-.38-23.84,5.52-24.06,13.18a8.54,8.54,0,0,0,.2,2.08c1.51,6.73,11.18,12.13,23,12.48s21.84-4.48,23.74-11.11a8.43,8.43,0,0,0,.32-2.06C373,163.39,362.64,156.87,349.58,156.48ZM348.83,182c-11-.33-19.74-5.81-19.55-12.25a7.8,7.8,0,0,1,1.83-4.67c3.2-4,10.28-6.65,18.4-6.41s15,3.3,18,7.48a7.77,7.77,0,0,1,1.55,4.77C368.87,177.38,359.81,182.34,348.83,182Z"/><path class="cls-10" d="M349.58,156.48c-13.07-.38-23.84,5.52-24.06,13.18a8.54,8.54,0,0,0,.2,2.08c1.51,6.73,11.18,12.13,23,12.48s21.84-4.48,23.74-11.11a8.43,8.43,0,0,0,.32-2.06C373,163.39,362.64,156.87,349.58,156.48ZM348.83,182c-11-.33-19.74-5.81-19.55-12.25a7.8,7.8,0,0,1,1.83-4.67c3.2-4,10.28-6.65,18.4-6.41s15,3.3,18,7.48a7.77,7.77,0,0,1,1.55,4.77C368.87,177.38,359.81,182.34,348.83,182Z"/><path class="cls-13" d="M375.66,187.45l-.45.67h0l-2,3-.52.77-8.88-5.54h0a1.73,1.73,0,0,1-.32-.2,2,2,0,0,1-.62-.85,2.45,2.45,0,0,1-.13-.55h0A3.2,3.2,0,0,1,363,183a3,3,0,0,1,1.52-1.51,2.1,2.1,0,0,1,1-.15,1.73,1.73,0,0,1,.58.16l.09,0,.12.07,0,0Z"/><path class="cls-10" d="M375.66,187.45l-.45.67h0l-10.7-6.64a2.1,2.1,0,0,1,1-.15,1.73,1.73,0,0,1,.58.16l.09,0,.12.07,0,0Z"/><path class="cls-12" d="M373.17,191.12l-.52.77-8.88-5.54h0a1.73,1.73,0,0,1-.32-.2,2,2,0,0,1-.62-.85,2.45,2.45,0,0,1-.13-.55Z"/><path class="cls-15" d="M404,203l-1.29,2.27-3.32,5.85-27-16.72h0a2.44,2.44,0,0,1-.56-.36,3.3,3.3,0,0,1-1.08-1.48,5.19,5.19,0,0,1,.27-4,5.57,5.57,0,0,1,.92-1.37h0a4.24,4.24,0,0,1,3.49-1.52,3.23,3.23,0,0,1,1,.28l.16.09.21.13.08,0,.05,0Z"/><path class="cls-16" d="M404,203l-1.29,2.27-3.26-1-27.58-17.11h0a4.24,4.24,0,0,1,3.49-1.52,3.23,3.23,0,0,1,1,.28l.16.09.21.13.08,0,.05,0Z"/><path class="cls-17" d="M405.31,208.83c-1.12,2.34-3.53,3.51-5.41,2.62h0a2.65,2.65,0,0,1-.56-.35,3.47,3.47,0,0,1-1.08-1.49,5.19,5.19,0,0,1,.27-4,4.63,4.63,0,0,1,4.41-2.89,3,3,0,0,1,1,.27l.16.09.21.13.08.05C405.91,204.32,406.34,206.69,405.31,208.83Z"/><path class="cls-18" d="M368.43,171c-.18,6.09-8.91,10.77-19.5,10.46s-19-5.5-18.85-11.58,8.91-10.77,19.5-10.46S368.6,164.92,368.43,171Z"/><path class="cls-18" d="M360.06,161.54c-19.1.42-24.62,9.83-26.22,15.15-2.43-1.93-3.84-4.29-3.77-6.82.19-6.08,8.92-10.76,19.51-10.45A30.27,30.27,0,0,1,360.06,161.54Z"/><path class="cls-19" d="M367.43,171c-.17,5.76-8.45,10.2-18.49,9.9s-18-5.2-17.86-11c0-.17,0-.33,0-.5.56,5.42,8.26,9.88,17.82,10.17,9.74.29,17.82-3.88,18.45-9.39A5.29,5.29,0,0,1,367.43,171Z"/><path class="cls-2" d="M99.05,321.24l-8.57-3a.2.2,0,0,0-.24.28L93.38,324a3.79,3.79,0,0,0,1.28,1.33L144.05,356a.78.78,0,0,0,.83,0l4.66-2.88a.36.36,0,0,0,0-.61L99.76,321.59A3.13,3.13,0,0,0,99.05,321.24Z"/><path class="cls-20" d="M98.22,316.72l-.58,1.07-2.18,4.06L90,315.52a.19.19,0,0,1,.06-.3.14.14,0,0,1,.15-.05Z"/><path class="cls-21" d="M98.22,316.72l-.58,1.07-1.77-.1-5.77-2.47a.14.14,0,0,1,.15-.05Z"/><path class="cls-22" d="M147.15,346.87l-.84,1.49-2.16,3.81-48-29.75h0a1.93,1.93,0,0,1-.37-.23,2.21,2.21,0,0,1-.7-1,3.35,3.35,0,0,1,.18-2.63,3.93,3.93,0,0,1,.59-.89h0a2.74,2.74,0,0,1,2.28-1,1.91,1.91,0,0,1,.66.18l.11.05.13.09,0,0,0,0Z"/><path class="cls-23" d="M147.15,346.87l-.84,1.49-2.12-.64-48.32-30h0a2.74,2.74,0,0,1,2.28-1,1.91,1.91,0,0,1,.66.18l.11.05.13.09,0,0,0,0Z"/><path class="cls-8" d="M148.05,350.69c-.74,1.53-2.31,2.29-3.53,1.71h0a1.69,1.69,0,0,1-.36-.23,2.08,2.08,0,0,1-.7-1,3.36,3.36,0,0,1,.17-2.62,3,3,0,0,1,2.88-1.89,1.91,1.91,0,0,1,.66.18l.1.06.14.08,0,0A2.93,2.93,0,0,1,148.05,350.69Z"/><path class="cls-24" d="M139,341.82l4.07,2.53,0,0a1.92,1.92,0,0,0-.61-.17,2.8,2.8,0,0,0-2.3,1,3.6,3.6,0,0,0-.59.87,3.43,3.43,0,0,0-.16,2.63,2.27,2.27,0,0,0,.47.76,1.07,1.07,0,0,0,.19.18l-3.9-2.4-.25-.16a2.24,2.24,0,0,1-.69-1,3.35,3.35,0,0,1,.18-2.63,3.16,3.16,0,0,1,.59-.88,2.75,2.75,0,0,1,2.28-1,1.73,1.73,0,0,1,.66.19Z"/><path class="cls-10" d="M143.17,344.41l-.09-.06,0,0Z"/><path class="cls-25" d="M147.2,346.91a1.51,1.51,0,0,0-.66-.18,2.71,2.71,0,0,0-2.28,1,3.72,3.72,0,0,0-.59.89,3.32,3.32,0,0,0-.18,2.62,2.23,2.23,0,0,0,.7,1l-3.93-2.43a1.34,1.34,0,0,1-.24-.16,1.07,1.07,0,0,1-.19-.18,2.14,2.14,0,0,1-.52-.78,3.44,3.44,0,0,1,.18-2.63,3.71,3.71,0,0,1,.57-.88,2.81,2.81,0,0,1,2.3-1,1.63,1.63,0,0,1,.66.19l0,0h0l0,0,0,0Z"/><path class="cls-2" d="M205.17,351.58c0,3.13-5,5.67-11.17,5.67s-11.17-2.54-11.17-5.67,5-5.67,11.17-5.67S205.17,348.45,205.17,351.58Z"/><path class="cls-26" d="M182.83,342.19v5.68c0,3.13,5,5.67,11.17,5.67s11.17-2.54,11.17-5.67v-5.68Z"/><path class="cls-27" d="M205.17,342.19c0,3.14-5,5.68-11.17,5.68s-11.17-2.54-11.17-5.68,5-5.67,11.17-5.67S205.17,339.06,205.17,342.19Z"/><path class="cls-10" d="M199,342.19c0,1.41-2.25,2.56-5,2.56s-5-1.15-5-2.56,2.25-2.55,5-2.55S199,340.78,199,342.19Z"/><ellipse class="cls-2" cx="171.66" cy="365.01" rx="11.17" ry="5.67"/><path class="cls-15" d="M160.49,355.63v5.67c0,3.13,5,5.67,11.17,5.67s11.17-2.54,11.17-5.67v-5.67Z"/><path class="cls-28" d="M182.83,355.63c0,3.13-5,5.67-11.17,5.67s-11.17-2.54-11.17-5.67,5-5.68,11.17-5.68S182.83,352.49,182.83,355.63Z"/><polygon class="cls-10" points="169.64 351.23 178.34 356.55 166.17 358.11 169.64 351.23"/><path class="cls-2" d="M227.51,338.15c0,3.13-5,5.67-11.17,5.67s-11.17-2.54-11.17-5.67,5-5.68,11.17-5.68S227.51,335,227.51,338.15Z"/><path class="cls-7" d="M205.17,328.76v5.67c0,3.14,5,5.68,11.17,5.68s11.17-2.54,11.17-5.68v-5.67Z"/><path class="cls-29" d="M227.51,328.76c0,3.13-5,5.67-11.17,5.67s-11.17-2.54-11.17-5.67,5-5.67,11.17-5.67S227.51,325.63,227.51,328.76Z"/><polygon class="cls-10" points="209.45 327.16 218.15 332.47 221.57 325.52 209.45 327.16"/><path class="cls-2" d="M372.42,279.39l-25.15-15.88,19.28-11.88a3.23,3.23,0,0,0,0-5.5l-99.11-61a5.82,5.82,0,0,0-6.1,0L136.83,261.81a3.19,3.19,0,0,0,0,5.44l99.15,61a5.87,5.87,0,0,0,6.14,0l20.81-12.81,24.12,15.78Z"/><path class="cls-4" d="M271.3,58.56l-4-2.52h0a2.78,2.78,0,0,0-3.06-.1L140.2,132.34a7.65,7.65,0,0,0-3.63,6.5v108a3,3,0,0,0,1.34,2.49v0l.23.15h0l4.33,2.73a31.92,31.92,0,0,0,.48-3.73l-.12,0L266,172.54a5.33,5.33,0,0,0,2.54-4.54V59.17Z"/><path class="cls-30" d="M145.45,252.07l124.8-76.84a5.34,5.34,0,0,0,2.53-4.54V61a2.81,2.81,0,0,0-4.28-2.4L144.44,135a7.63,7.63,0,0,0-3.63,6.5v108A3,3,0,0,0,145.45,252.07Z"/><path class="cls-31" d="M148.15,245.79l119.48-73.57a5.1,5.1,0,0,0,2.43-4.35V69a2.69,2.69,0,0,0-4.1-2.29L147.18,139.86a7.31,7.31,0,0,0-3.47,6.22V243.3A2.92,2.92,0,0,0,148.15,245.79Z"/><path class="cls-4" d="M368,239.79h0V234H361L275.83,181.7a5.81,5.81,0,0,0-6.09,0L153,253.61l-9.24,1.32v5.94l0,0a3.16,3.16,0,0,0,1.5,2.92L236,319.55a5.85,5.85,0,0,0,6.14,0l124.43-76.62A3.19,3.19,0,0,0,368,239.79Z"/><path class="cls-32" d="M242.12,313.39l124.43-76.62a3.24,3.24,0,0,0,0-5.51l-90.72-55.72a5.81,5.81,0,0,0-6.09,0L145.22,252.21a3.2,3.2,0,0,0,0,5.44L236,313.39A5.85,5.85,0,0,0,242.12,313.39Z"/><path class="cls-4" d="M218.39,286.54l104.48-64.35a2.87,2.87,0,0,0,0-4.9l-52-32.47a5.18,5.18,0,0,0-5.43,0L160.93,249.21a2.84,2.84,0,0,0,0,4.84l52,32.5A5.19,5.19,0,0,0,218.39,286.54Z"/><path class="cls-13" d="M279.44,286.68,323,259.87a1.13,1.13,0,0,0,0-1.92l-25.21-15.77a2,2,0,0,0-2.13,0L252.07,269a1.12,1.12,0,0,0,0,1.9l25.22,15.78A2.08,2.08,0,0,0,279.44,286.68Z"/><path class="cls-23" d="M170.27,245.84a.61.61,0,0,0-.64,0l-5.43,3.34-.61-.2v.77h0a.32.32,0,0,0,.16.28l6.16,3.85a.61.61,0,0,0,.64,0l5.88-3.61a.39.39,0,0,0,.16-.29h0v-.75Z"/><path class="cls-23" d="M179,240.47a.61.61,0,0,0-.64,0l-5.43,3.34-.62-.2v.77h0a.32.32,0,0,0,.15.28l6.16,3.85a.63.63,0,0,0,.65,0l5.87-3.61a.33.33,0,0,0,.16-.28h0v-.76Z"/><path class="cls-33" d="M187.68,235.11a.57.57,0,0,0-.64,0l-5.43,3.33-.61-.2V239h0a.31.31,0,0,0,.16.28l6.16,3.85a.61.61,0,0,0,.64,0l5.88-3.61a.36.36,0,0,0,.16-.28h0v-.76Z"/><path class="cls-33" d="M196.39,229.74a.61.61,0,0,0-.64,0l-5.43,3.34-.62-.2v.76h0a.35.35,0,0,0,.15.29l6.16,3.84a.59.59,0,0,0,.65,0l5.87-3.61a.31.31,0,0,0,.16-.28h0v-.76Z"/><path class="cls-33" d="M205.09,224.37a.61.61,0,0,0-.64,0L199,227.71l-.61-.2v.77h0a.32.32,0,0,0,.16.28l6.16,3.85a.61.61,0,0,0,.64,0l5.88-3.61a.39.39,0,0,0,.16-.29h0v-.75Z"/><path class="cls-33" d="M213.8,219a.61.61,0,0,0-.64,0l-5.43,3.34-.62-.2v.77h0a.32.32,0,0,0,.15.28l6.16,3.85a.63.63,0,0,0,.65,0l5.87-3.61a.33.33,0,0,0,.16-.28h0v-.76Z"/><path class="cls-33" d="M222.5,213.64a.57.57,0,0,0-.64,0L216.43,217l-.61-.2v.77h0a.31.31,0,0,0,.16.28l6.16,3.85a.61.61,0,0,0,.64,0l5.88-3.61a.36.36,0,0,0,.16-.28h0V217Z"/><path class="cls-33" d="M222.78,220.91l5.88-3.61a.35.35,0,0,0,0-.58l-6.16-3.85a.61.61,0,0,0-.64,0L216,216.49a.34.34,0,0,0,0,.57l6.16,3.85A.61.61,0,0,0,222.78,220.91Z"/><path class="cls-33" d="M231.21,208.27a.61.61,0,0,0-.64,0l-5.43,3.34-.62-.2v.76h0a.35.35,0,0,0,.15.29l6.16,3.84a.59.59,0,0,0,.65,0l5.87-3.61a.31.31,0,0,0,.16-.28h0v-.76Z"/><path class="cls-33" d="M239.91,202.9a.61.61,0,0,0-.64,0l-5.43,3.34-.61-.2v.77h0a.32.32,0,0,0,.16.28l6.16,3.85a.61.61,0,0,0,.64,0l5.88-3.61a.39.39,0,0,0,.16-.29h0v-.75Z"/><path class="cls-33" d="M248.62,197.53a.61.61,0,0,0-.64,0l-5.43,3.34-.62-.2v.77h0a.32.32,0,0,0,.15.28l6.16,3.85a.63.63,0,0,0,.65,0l5.87-3.61a.32.32,0,0,0,.16-.28h0v-.76Z"/><path class="cls-33" d="M257.32,192.17a.59.59,0,0,0-.64,0l-5.43,3.33-.61-.2v.77h0a.31.31,0,0,0,.16.28L257,200.2a.61.61,0,0,0,.64,0l5.88-3.61a.36.36,0,0,0,.16-.28h0v-.76Z"/><path class="cls-33" d="M266,186.8a.61.61,0,0,0-.64,0L260,190.14l-.62-.2v.76h0a.35.35,0,0,0,.15.29l6.16,3.84a.59.59,0,0,0,.65,0l5.87-3.61a.31.31,0,0,0,.16-.28h0v-.76Z"/><path class="cls-23" d="M180,252a.63.63,0,0,0-.65,0l-5.43,3.34-.61-.2v.76h0a.36.36,0,0,0,.16.28l6.16,3.85a.63.63,0,0,0,.65,0l5.87-3.61a.36.36,0,0,0,.16-.29h0v-.75Z"/><path class="cls-33" d="M188.68,246.6a.61.61,0,0,0-.64,0l-5.43,3.34-.61-.2v.77h0a.31.31,0,0,0,.16.28l6.15,3.85a.63.63,0,0,0,.65,0l5.87-3.61a.34.34,0,0,0,.16-.29h0V250Z"/><path class="cls-33" d="M197.39,241.23a.61.61,0,0,0-.65,0l-5.43,3.33-.61-.2v.77h0a.33.33,0,0,0,.16.28l6.16,3.85a.63.63,0,0,0,.65,0l5.87-3.61a.33.33,0,0,0,.16-.28h0v-.76Z"/><path class="cls-33" d="M206.09,235.87a.61.61,0,0,0-.64,0L200,239.2l-.61-.19v.76h0a.31.31,0,0,0,.16.28l6.15,3.85a.63.63,0,0,0,.65,0l5.87-3.61a.31.31,0,0,0,.16-.28h0v-.76Z"/><path class="cls-33" d="M214.8,230.5a.63.63,0,0,0-.65,0l-5.43,3.34-.61-.2v.77h0a.36.36,0,0,0,.16.28l6.16,3.85a.63.63,0,0,0,.65,0l5.87-3.61a.36.36,0,0,0,.16-.29h0v-.75Z"/><path class="cls-33" d="M223.5,225.13a.61.61,0,0,0-.64,0l-5.43,3.34-.61-.2V229h0a.31.31,0,0,0,.16.28l6.15,3.85a.63.63,0,0,0,.65,0l5.87-3.61a.34.34,0,0,0,.16-.29h0v-.76Z"/><path class="cls-33" d="M232.21,219.76a.61.61,0,0,0-.65,0l-5.43,3.33-.61-.2v.77h0a.33.33,0,0,0,.16.28l6.16,3.85a.63.63,0,0,0,.65,0l5.87-3.61a.33.33,0,0,0,.16-.28h0v-.76Z"/><path class="cls-33" d="M240.91,214.4a.61.61,0,0,0-.64,0l-5.43,3.33-.61-.19v.76h0a.34.34,0,0,0,.16.29l6.15,3.84a.63.63,0,0,0,.65,0l5.87-3.61a.31.31,0,0,0,.16-.28h0v-.76Z"/><path class="cls-33" d="M249.62,209a.63.63,0,0,0-.65,0l-5.43,3.34-.61-.2v.77h0a.36.36,0,0,0,.16.28l6.16,3.85a.63.63,0,0,0,.65,0l5.87-3.61a.36.36,0,0,0,.16-.29h0v-.75Z"/><path class="cls-33" d="M258.32,203.66a.61.61,0,0,0-.64,0L252.25,207l-.61-.2v.77h0a.31.31,0,0,0,.16.28L258,211.7a.63.63,0,0,0,.65,0l5.87-3.61a.34.34,0,0,0,.16-.29h0v-.76Z"/><path class="cls-33" d="M267,198.29a.61.61,0,0,0-.65,0L261,201.63l-.61-.2v.77h0a.33.33,0,0,0,.16.28l6.16,3.85a.63.63,0,0,0,.65,0l5.87-3.61a.33.33,0,0,0,.16-.28h0v-.76Z"/><path class="cls-33" d="M275.73,192.93a.61.61,0,0,0-.64,0l-5.43,3.33-.61-.19v.76h0a.34.34,0,0,0,.16.29l6.15,3.84a.63.63,0,0,0,.65,0l5.87-3.61a.31.31,0,0,0,.16-.28h0v-.76Z"/><path class="cls-23" d="M189.68,258.1a.61.61,0,0,0-.64,0l-5.43,3.34-.61-.2V262h0a.34.34,0,0,0,.16.29l6.15,3.84a.59.59,0,0,0,.65,0l5.87-3.61a.31.31,0,0,0,.16-.28h0v-.76Z"/><path class="cls-23" d="M198.38,252.73a.61.61,0,0,0-.64,0l-5.43,3.34-.61-.2v.77h0a.32.32,0,0,0,.16.28l6.16,3.85a.61.61,0,0,0,.64,0l5.88-3.61a.36.36,0,0,0,.16-.29h0v-.75Z"/><path class="cls-23" d="M207.09,247.36a.61.61,0,0,0-.64,0L201,250.7l-.61-.2v.77h0a.31.31,0,0,0,.16.28l6.15,3.85a.63.63,0,0,0,.65,0l5.87-3.61a.33.33,0,0,0,.16-.28h0v-.76Z"/><path class="cls-23" d="M215.79,242a.59.59,0,0,0-.64,0l-5.43,3.33-.61-.2v.77h0a.31.31,0,0,0,.16.28l6.16,3.85a.61.61,0,0,0,.64,0l5.88-3.61a.36.36,0,0,0,.16-.28h0v-.76Z"/><path class="cls-23" d="M224.5,236.63a.61.61,0,0,0-.64,0L218.43,240l-.62-.2v.76h0a.34.34,0,0,0,.16.29l6.15,3.84a.59.59,0,0,0,.65,0l5.87-3.61a.31.31,0,0,0,.16-.28h0V240Z"/><path class="cls-23" d="M233.2,231.26a.61.61,0,0,0-.64,0l-5.43,3.34-.61-.2v.77h0a.32.32,0,0,0,.16.28l6.16,3.85a.61.61,0,0,0,.64,0l5.88-3.61a.39.39,0,0,0,.16-.29h0v-.75Z"/><path class="cls-33" d="M241.91,225.89a.61.61,0,0,0-.64,0l-5.43,3.34-.62-.2v.77h0a.31.31,0,0,0,.16.28l6.15,3.85a.63.63,0,0,0,.65,0l5.87-3.61a.32.32,0,0,0,.16-.28h0v-.76Z"/><path class="cls-33" d="M250.61,220.53a.59.59,0,0,0-.64,0l-5.43,3.33-.61-.2v.77h0a.31.31,0,0,0,.16.28l6.16,3.85a.61.61,0,0,0,.64,0l5.88-3.61a.36.36,0,0,0,.16-.28h0v-.76Z"/><path class="cls-33" d="M259.32,215.16a.61.61,0,0,0-.64,0l-5.43,3.34-.62-.2v.76h0a.34.34,0,0,0,.16.29l6.15,3.84a.59.59,0,0,0,.65,0l5.87-3.61a.31.31,0,0,0,.16-.28h0v-.76Z"/><path class="cls-33" d="M268,209.79a.61.61,0,0,0-.64,0L262,213.13l-.61-.2v.77h0a.32.32,0,0,0,.16.28l6.16,3.85a.61.61,0,0,0,.64,0l5.88-3.61a.39.39,0,0,0,.16-.29h0v-.75Z"/><path class="cls-33" d="M276.73,204.42a.61.61,0,0,0-.64,0l-5.43,3.34-.62-.2v.77h0a.32.32,0,0,0,.15.28l6.16,3.85a.63.63,0,0,0,.65,0l5.87-3.61a.32.32,0,0,0,.16-.28h0v-.76Z"/><path class="cls-33" d="M285.43,199.06a.61.61,0,0,0-.64,0l-5.43,3.33-.61-.2V203h0a.31.31,0,0,0,.16.28l6.16,3.85a.61.61,0,0,0,.64,0l5.88-3.61a.36.36,0,0,0,.16-.28h0v-.76Z"/><path class="cls-23" d="M199.38,264.23a.61.61,0,0,0-.64,0l-5.43,3.33-.61-.19v.76h0a.31.31,0,0,0,.16.28l6.15,3.85a.63.63,0,0,0,.65,0l5.87-3.61a.31.31,0,0,0,.16-.28h0v-.76Z"/><path class="cls-23" d="M208.09,258.86a.63.63,0,0,0-.65,0L202,262.2l-.61-.2v.77h0a.39.39,0,0,0,.16.28l6.16,3.85a.63.63,0,0,0,.65,0l5.87-3.61a.34.34,0,0,0,.16-.29h0v-.75Z"/><path class="cls-23" d="M216.79,253.49a.61.61,0,0,0-.64,0l-5.43,3.34-.61-.2v.77h0a.31.31,0,0,0,.16.28l6.15,3.85a.63.63,0,0,0,.65,0l5.87-3.61a.34.34,0,0,0,.16-.29h0v-.76Z"/><path class="cls-23" d="M225.5,248.12a.61.61,0,0,0-.65,0l-5.43,3.33-.61-.2V252h0a.36.36,0,0,0,.16.28l6.16,3.85a.63.63,0,0,0,.65,0l5.87-3.61a.31.31,0,0,0,.16-.28h0v-.76Z"/><path class="cls-23" d="M234.2,242.76a.61.61,0,0,0-.64,0l-5.43,3.33-.61-.19v.76h0a.34.34,0,0,0,.16.29l6.15,3.84a.63.63,0,0,0,.65,0l5.87-3.61a.31.31,0,0,0,.16-.28h0v-.76Z"/><path class="cls-33" d="M242.91,237.39a.63.63,0,0,0-.65,0l-5.43,3.34-.61-.2v.77h0a.39.39,0,0,0,.16.28l6.16,3.85a.63.63,0,0,0,.65,0l5.87-3.61a.34.34,0,0,0,.16-.29h0v-.75Z"/><path class="cls-33" d="M251.61,232a.61.61,0,0,0-.64,0l-5.43,3.34-.61-.2v.77h0a.31.31,0,0,0,.16.28l6.15,3.85a.63.63,0,0,0,.65,0l5.87-3.61a.34.34,0,0,0,.16-.29h0v-.76Z"/><path class="cls-33" d="M260.32,226.65a.61.61,0,0,0-.65,0L254.24,230l-.61-.2v.77h0a.36.36,0,0,0,.16.28l6.16,3.85a.63.63,0,0,0,.65,0l5.87-3.61a.31.31,0,0,0,.16-.28h0V230Z"/><path class="cls-33" d="M269,221.29a.61.61,0,0,0-.64,0L263,224.62l-.61-.19v.76h0a.34.34,0,0,0,.16.29l6.15,3.84a.63.63,0,0,0,.65,0l5.87-3.61a.31.31,0,0,0,.16-.28h0v-.76Z"/><path class="cls-33" d="M277.73,215.92a.63.63,0,0,0-.65,0l-5.43,3.34-.61-.2v.77h0a.36.36,0,0,0,.16.28l6.16,3.85a.63.63,0,0,0,.65,0l5.87-3.61a.36.36,0,0,0,.16-.29h0v-.75Z"/><path class="cls-33" d="M286.43,210.55a.61.61,0,0,0-.64,0l-5.43,3.34-.61-.2v.77h0a.31.31,0,0,0,.16.28l6.15,3.85a.63.63,0,0,0,.65,0l5.87-3.61a.34.34,0,0,0,.16-.29h0v-.76Z"/><path class="cls-33" d="M295.14,205.18a.61.61,0,0,0-.65,0l-5.43,3.33-.61-.2v.77h0a.33.33,0,0,0,.16.28l6.16,3.85a.63.63,0,0,0,.65,0l5.87-3.61a.33.33,0,0,0,.16-.28h0v-.76Z"/><path class="cls-23" d="M209.08,270.36a.59.59,0,0,0-.64,0L203,273.69l-.61-.2v.77h0a.33.33,0,0,0,.16.28l6.16,3.85a.61.61,0,0,0,.64,0l5.88-3.61a.33.33,0,0,0,.16-.28h0v-.76Z"/><path class="cls-23" d="M217.79,265a.61.61,0,0,0-.64,0l-5.43,3.34-.61-.2v.76h0a.34.34,0,0,0,.16.29l6.15,3.84a.59.59,0,0,0,.65,0l5.87-3.61a.31.31,0,0,0,.16-.28h0v-.76Z"/><path class="cls-23" d="M226.49,259.62a.61.61,0,0,0-.64,0L220.42,263l-.61-.2v.77h0a.34.34,0,0,0,.16.28l6.16,3.85a.61.61,0,0,0,.64,0l5.88-3.61a.36.36,0,0,0,.16-.29h0V263Z"/><path class="cls-23" d="M235.2,254.25a.61.61,0,0,0-.64,0l-5.43,3.34-.61-.2v.77h0a.31.31,0,0,0,.16.28l6.15,3.85a.63.63,0,0,0,.65,0l5.87-3.61a.32.32,0,0,0,.16-.28h0v-.76Z"/><path class="cls-23" d="M243.9,248.89a.59.59,0,0,0-.64,0l-5.43,3.33-.61-.2v.77h0a.33.33,0,0,0,.16.28l6.16,3.85a.61.61,0,0,0,.64,0l5.88-3.61a.33.33,0,0,0,.16-.28h0v-.76Z"/><path class="cls-33" d="M252.61,243.52a.61.61,0,0,0-.64,0l-5.43,3.34-.61-.2v.76h0a.34.34,0,0,0,.16.29l6.15,3.84a.59.59,0,0,0,.65,0l5.87-3.61a.31.31,0,0,0,.16-.28h0v-.76Z"/><path class="cls-33" d="M261.31,238.15a.61.61,0,0,0-.64,0l-5.43,3.34-.61-.2v.77h0a.34.34,0,0,0,.16.28l6.16,3.85a.61.61,0,0,0,.64,0l5.88-3.61a.36.36,0,0,0,.16-.29h0v-.75Z"/><path class="cls-33" d="M270,232.78a.61.61,0,0,0-.64,0L264,236.12l-.61-.2v.77h0a.31.31,0,0,0,.16.28l6.15,3.85a.63.63,0,0,0,.65,0l5.87-3.61a.32.32,0,0,0,.16-.28h0v-.76Z"/><path class="cls-33" d="M278.72,227.42a.61.61,0,0,0-.64,0l-5.43,3.33-.61-.2v.77h0a.33.33,0,0,0,.16.28l6.16,3.85a.61.61,0,0,0,.64,0l5.88-3.61a.33.33,0,0,0,.16-.28h0v-.76Z"/><path class="cls-33" d="M287.43,222.05a.61.61,0,0,0-.64,0l-5.43,3.34-.61-.2V226h0a.34.34,0,0,0,.16.29l6.15,3.84a.59.59,0,0,0,.65,0l5.87-3.61a.31.31,0,0,0,.16-.28h0v-.76Z"/><path class="cls-33" d="M296.13,216.68a.61.61,0,0,0-.64,0L290.06,220l-.61-.2v.77h0a.32.32,0,0,0,.16.28l6.16,3.85a.61.61,0,0,0,.64,0l5.88-3.61a.36.36,0,0,0,.16-.29h0v-.75Z"/><path class="cls-33" d="M304.84,211.31a.61.61,0,0,0-.64,0l-5.43,3.34-.61-.2v.77h0a.31.31,0,0,0,.16.28l6.15,3.85a.63.63,0,0,0,.65,0l5.87-3.61a.32.32,0,0,0,.16-.28h0v-.76Z"/><path class="cls-23" d="M218.79,276.48a.61.61,0,0,0-.65,0l-5.43,3.33-.61-.2v.77h0a.36.36,0,0,0,.16.28l6.16,3.85a.63.63,0,0,0,.65,0l5.87-3.61a.31.31,0,0,0,.16-.28h0v-.76Z"/><path class="cls-23" d="M227.49,271.12a.61.61,0,0,0-.64,0l-5.43,3.33-.61-.19V275h0a.34.34,0,0,0,.16.29l6.16,3.84a.61.61,0,0,0,.64,0l5.87-3.61a.34.34,0,0,0,.17-.28h0v-.76Z"/><path class="cls-23" d="M236.2,265.75a.63.63,0,0,0-.65,0l-5.43,3.34-.61-.2v.77h0a.39.39,0,0,0,.16.28l6.16,3.85a.63.63,0,0,0,.65,0l5.87-3.61a.34.34,0,0,0,.16-.29h0v-.75Z"/><path class="cls-33" d="M279.72,238.91a.61.61,0,0,0-.64,0l-5.43,3.34-.61-.2v.77h0a.31.31,0,0,0,.16.28l6.16,3.85a.61.61,0,0,0,.64,0l5.87-3.61a.37.37,0,0,0,.17-.29h0v-.76Z"/><path class="cls-33" d="M288.43,233.54a.61.61,0,0,0-.65,0l-5.43,3.33-.61-.2v.77h0a.36.36,0,0,0,.16.28l6.16,3.85a.63.63,0,0,0,.65,0l5.87-3.61a.31.31,0,0,0,.16-.28h0v-.76Z"/><path class="cls-33" d="M297.13,228.18a.61.61,0,0,0-.64,0l-5.43,3.34-.61-.2v.76h0a.34.34,0,0,0,.16.29l6.15,3.84a.61.61,0,0,0,.65,0l5.87-3.61a.31.31,0,0,0,.16-.28h0v-.76Z"/><path class="cls-33" d="M305.84,222.81a.63.63,0,0,0-.65,0l-5.43,3.34-.61-.2v.77h0a.39.39,0,0,0,.16.28l2.51,1.56a.61.61,0,0,0,.64,0l5.88-3.61a.36.36,0,0,0,.16-.28h0v-.76Z"/><path class="cls-33" d="M309.5,225.1a.63.63,0,0,0-.65,0l-5.43,3.34-.61-.2V229h0a.39.39,0,0,0,.16.29l2.51,1.56a.61.61,0,0,0,.64,0l5.88-3.61a.39.39,0,0,0,.16-.28h0v-.76Z"/><path class="cls-33" d="M314.54,217.44a.61.61,0,0,0-.64,0l-5.43,3.34-.61-.2v.77h0a.31.31,0,0,0,.16.28l6.15,3.85a.63.63,0,0,0,.65,0l5.87-3.61a.34.34,0,0,0,.16-.29h0v-.76Z"/><path class="cls-23" d="M271,244.28a.63.63,0,0,0-.65,0l-5.43,3.34-.61-.2v.77h0a.39.39,0,0,0,.16.28l3,1.86-18.65,12.16-3.93-2.11a.61.61,0,0,0-.64,0l-5.43,3.34-.61-.2v.77h0a.31.31,0,0,0,.16.28l6.16,3.85a.61.61,0,0,0,.64,0l5.87-3.61h0l23.28-14.35h0l2.83-1.74a.34.34,0,0,0,.16-.29h0v-.75Z"/><path class="cls-10" d="M170.55,253.11l5.88-3.6a.36.36,0,0,0,0-.59l-6.16-3.84a.61.61,0,0,0-.64,0l-5.88,3.61a.35.35,0,0,0,0,.58l6.16,3.85A.59.59,0,0,0,170.55,253.11Z"/><path class="cls-10" d="M179.26,247.75l5.87-3.61a.34.34,0,0,0,0-.58L179,239.71a.61.61,0,0,0-.64,0l-5.89,3.62a.34.34,0,0,0,0,.57l6.16,3.85A.63.63,0,0,0,179.26,247.75Z"/><path class="cls-10" d="M188,242.38l5.88-3.61a.35.35,0,0,0,0-.58l-6.16-3.85a.61.61,0,0,0-.64,0L181.16,238a.34.34,0,0,0,0,.57l6.16,3.85A.61.61,0,0,0,188,242.38Z"/><path class="cls-10" d="M196.67,237l5.87-3.61a.34.34,0,0,0,0-.58L196.39,229a.61.61,0,0,0-.64,0l-5.89,3.61a.34.34,0,0,0,0,.57L196,237A.63.63,0,0,0,196.67,237Z"/><path class="cls-10" d="M205.37,231.64l5.88-3.6a.35.35,0,0,0,0-.58l-6.16-3.85a.61.61,0,0,0-.64,0l-5.88,3.61a.35.35,0,0,0,0,.58l6.16,3.85A.59.59,0,0,0,205.37,231.64Z"/><path class="cls-10" d="M214.08,226.28l5.87-3.61a.34.34,0,0,0,0-.58l-6.15-3.85a.61.61,0,0,0-.64,0l-5.89,3.62a.34.34,0,0,0,0,.57l6.16,3.85A.63.63,0,0,0,214.08,226.28Z"/><path class="cls-10" d="M231.49,215.54l5.87-3.61a.34.34,0,0,0,0-.58l-6.15-3.84a.61.61,0,0,0-.64,0l-5.89,3.61a.34.34,0,0,0,0,.57l6.16,3.85A.63.63,0,0,0,231.49,215.54Z"/><path class="cls-10" d="M240.19,210.18l5.88-3.61a.35.35,0,0,0,0-.58l-6.16-3.85a.61.61,0,0,0-.64,0l-5.88,3.61a.35.35,0,0,0,0,.58l6.16,3.85A.61.61,0,0,0,240.19,210.18Z"/><path class="cls-10" d="M248.9,204.81l5.87-3.61a.34.34,0,0,0,0-.58l-6.15-3.85a.61.61,0,0,0-.64,0l-5.89,3.62a.34.34,0,0,0,0,.57l6.16,3.85A.63.63,0,0,0,248.9,204.81Z"/><path class="cls-10" d="M257.6,199.44l5.88-3.61a.35.35,0,0,0,0-.58l-6.16-3.85a.59.59,0,0,0-.64,0L250.8,195a.34.34,0,0,0,0,.57l6.16,3.85A.61.61,0,0,0,257.6,199.44Z"/><path class="cls-10" d="M266.31,194.07l5.87-3.61a.34.34,0,0,0,0-.58L266,186a.61.61,0,0,0-.64,0l-5.89,3.61a.34.34,0,0,0,0,.57l6.16,3.85A.63.63,0,0,0,266.31,194.07Z"/><path class="cls-10" d="M180.26,259.24l5.87-3.61a.34.34,0,0,0,0-.58L180,251.21a.63.63,0,0,0-.65,0l-5.88,3.61a.35.35,0,0,0,0,.58l6.16,3.84A.59.59,0,0,0,180.26,259.24Z"/><path class="cls-10" d="M189,253.88l5.87-3.61a.34.34,0,0,0,0-.58l-6.15-3.85a.61.61,0,0,0-.64,0l-5.88,3.62a.33.33,0,0,0,0,.57l6.15,3.85A.63.63,0,0,0,189,253.88Z"/><path class="cls-10" d="M197.67,248.51l5.87-3.61a.34.34,0,0,0,0-.58l-6.15-3.85a.63.63,0,0,0-.65,0l-5.88,3.62a.34.34,0,0,0,0,.57l6.16,3.85A.63.63,0,0,0,197.67,248.51Z"/><path class="cls-10" d="M206.37,243.14l5.87-3.61a.34.34,0,0,0,0-.58l-6.15-3.84a.57.57,0,0,0-.64,0l-5.88,3.61a.33.33,0,0,0,0,.57l6.15,3.85A.63.63,0,0,0,206.37,243.14Z"/><path class="cls-10" d="M215.08,237.77l5.87-3.61a.35.35,0,0,0,0-.58l-6.15-3.84a.63.63,0,0,0-.65,0l-5.88,3.61a.35.35,0,0,0,0,.58l6.16,3.84A.59.59,0,0,0,215.08,237.77Z"/><path class="cls-10" d="M223.78,232.41l5.87-3.61a.34.34,0,0,0,0-.58l-6.15-3.85a.61.61,0,0,0-.64,0L217,228a.33.33,0,0,0,0,.57l6.15,3.85A.63.63,0,0,0,223.78,232.41Z"/><path class="cls-10" d="M232.49,227l5.87-3.61a.35.35,0,0,0,0-.58L232.21,219a.63.63,0,0,0-.65,0l-5.88,3.62a.34.34,0,0,0,0,.57l6.16,3.85A.63.63,0,0,0,232.49,227Z"/><path class="cls-10" d="M241.19,221.67l5.87-3.61a.34.34,0,0,0,0-.58l-6.15-3.84a.57.57,0,0,0-.64,0l-5.88,3.61a.33.33,0,0,0,0,.57l6.15,3.85A.63.63,0,0,0,241.19,221.67Z"/><path class="cls-10" d="M249.9,216.3l5.87-3.61a.35.35,0,0,0,0-.58l-6.15-3.84a.63.63,0,0,0-.65,0l-5.88,3.61a.35.35,0,0,0,0,.58l6.16,3.84A.59.59,0,0,0,249.9,216.3Z"/><path class="cls-10" d="M258.6,210.94l5.87-3.61a.34.34,0,0,0,0-.58l-6.15-3.85a.61.61,0,0,0-.64,0l-5.88,3.62a.33.33,0,0,0,0,.57l6.15,3.85A.63.63,0,0,0,258.6,210.94Z"/><path class="cls-10" d="M267.31,205.57l5.87-3.61a.35.35,0,0,0,0-.58L267,197.53a.63.63,0,0,0-.65,0l-5.88,3.62a.34.34,0,0,0,0,.57l6.16,3.85A.63.63,0,0,0,267.31,205.57Z"/><path class="cls-10" d="M276,200.2l5.87-3.61a.34.34,0,0,0,0-.58l-6.15-3.84a.59.59,0,0,0-.64,0l-5.88,3.61a.33.33,0,0,0,0,.57l6.15,3.85A.63.63,0,0,0,276,200.2Z"/><path class="cls-10" d="M190,265.37l5.87-3.61a.34.34,0,0,0,0-.58l-6.15-3.84a.61.61,0,0,0-.64,0L183.16,261a.33.33,0,0,0,0,.57l6.15,3.85A.63.63,0,0,0,190,265.37Z"/><path class="cls-10" d="M198.66,260l5.88-3.61a.35.35,0,0,0,0-.58L198.38,252a.61.61,0,0,0-.64,0l-5.88,3.61a.35.35,0,0,0,0,.58L198,260A.61.61,0,0,0,198.66,260Z"/><path class="cls-10" d="M207.37,254.64l5.87-3.61a.34.34,0,0,0,0-.58l-6.15-3.85a.61.61,0,0,0-.64,0l-5.88,3.62a.33.33,0,0,0,0,.57l6.15,3.85A.63.63,0,0,0,207.37,254.64Z"/><path class="cls-10" d="M216.07,249.27l5.88-3.61a.35.35,0,0,0,0-.58l-6.16-3.85a.59.59,0,0,0-.64,0l-5.88,3.61a.34.34,0,0,0,0,.57l6.16,3.85A.61.61,0,0,0,216.07,249.27Z"/><path class="cls-10" d="M224.78,243.9l5.87-3.61a.34.34,0,0,0,0-.58l-6.15-3.84a.61.61,0,0,0-.64,0L218,239.48a.33.33,0,0,0,0,.57l6.15,3.85A.63.63,0,0,0,224.78,243.9Z"/><path class="cls-10" d="M233.48,238.54l5.88-3.61a.35.35,0,0,0,0-.58l-6.16-3.85a.61.61,0,0,0-.64,0l-5.88,3.61a.35.35,0,0,0,0,.58l6.16,3.85A.61.61,0,0,0,233.48,238.54Z"/><path class="cls-10" d="M242.19,233.17l5.87-3.61a.34.34,0,0,0,0-.58l-6.15-3.85a.61.61,0,0,0-.64,0l-5.89,3.62a.33.33,0,0,0,0,.57l6.15,3.85A.63.63,0,0,0,242.19,233.17Z"/><path class="cls-10" d="M250.89,227.8l5.88-3.61a.35.35,0,0,0,0-.58l-6.16-3.85a.59.59,0,0,0-.64,0l-5.88,3.61a.34.34,0,0,0,0,.57l6.16,3.85A.61.61,0,0,0,250.89,227.8Z"/><path class="cls-10" d="M259.6,222.43l5.87-3.61a.34.34,0,0,0,0-.58l-6.15-3.84a.61.61,0,0,0-.64,0L252.79,218a.34.34,0,0,0,0,.58l6.15,3.84A.63.63,0,0,0,259.6,222.43Z"/><path class="cls-10" d="M268.3,217.07l5.88-3.61a.35.35,0,0,0,0-.58L268,209a.61.61,0,0,0-.64,0l-5.88,3.61a.35.35,0,0,0,0,.58l6.16,3.85A.61.61,0,0,0,268.3,217.07Z"/><path class="cls-10" d="M277,211.7l5.87-3.61a.34.34,0,0,0,0-.58l-6.15-3.85a.61.61,0,0,0-.64,0l-5.89,3.62a.34.34,0,0,0,0,.57l6.16,3.85A.63.63,0,0,0,277,211.7Z"/><path class="cls-10" d="M285.71,206.33l5.88-3.61a.35.35,0,0,0,0-.58l-6.16-3.85a.59.59,0,0,0-.64,0l-5.88,3.61a.34.34,0,0,0,0,.57l6.16,3.85A.61.61,0,0,0,285.71,206.33Z"/><path class="cls-10" d="M199.66,271.5l5.87-3.61a.34.34,0,0,0,0-.58l-6.15-3.84a.57.57,0,0,0-.64,0l-5.88,3.61a.33.33,0,0,0,0,.57L199,271.5A.63.63,0,0,0,199.66,271.5Z"/><path class="cls-10" d="M208.37,266.13l5.87-3.61a.34.34,0,0,0,0-.58l-6.15-3.84a.63.63,0,0,0-.65,0l-5.88,3.61a.35.35,0,0,0,0,.58l6.16,3.84A.59.59,0,0,0,208.37,266.13Z"/><path class="cls-10" d="M217.07,260.77l5.87-3.61a.34.34,0,0,0,0-.58l-6.15-3.85a.61.61,0,0,0-.64,0l-5.88,3.62a.33.33,0,0,0,0,.57l6.15,3.85A.63.63,0,0,0,217.07,260.77Z"/><path class="cls-10" d="M225.78,255.4l5.87-3.61a.34.34,0,0,0,0-.58l-6.15-3.85a.63.63,0,0,0-.65,0L219,251a.34.34,0,0,0,0,.57l6.16,3.85A.63.63,0,0,0,225.78,255.4Z"/><path class="cls-10" d="M234.48,250l5.87-3.61a.34.34,0,0,0,0-.58L234.2,242a.59.59,0,0,0-.64,0l-5.88,3.61a.33.33,0,0,0,0,.57l6.15,3.85A.63.63,0,0,0,234.48,250Z"/><path class="cls-10" d="M243.19,244.66l5.87-3.61a.34.34,0,0,0,0-.58l-6.15-3.84a.63.63,0,0,0-.65,0l-5.88,3.61a.35.35,0,0,0,0,.58l6.16,3.84A.59.59,0,0,0,243.19,244.66Z"/><path class="cls-10" d="M251.89,239.3l5.87-3.61a.34.34,0,0,0,0-.58l-6.15-3.85a.61.61,0,0,0-.64,0l-5.88,3.62a.33.33,0,0,0,0,.57l6.15,3.85A.63.63,0,0,0,251.89,239.3Z"/><path class="cls-10" d="M260.6,233.93l5.87-3.61a.34.34,0,0,0,0-.58l-6.15-3.85a.63.63,0,0,0-.65,0l-5.88,3.62a.34.34,0,0,0,0,.57l6.16,3.85A.63.63,0,0,0,260.6,233.93Z"/><path class="cls-10" d="M269.3,228.56l5.87-3.61a.34.34,0,0,0,0-.58L269,220.53a.59.59,0,0,0-.64,0l-5.88,3.61a.33.33,0,0,0,0,.57l6.15,3.85A.63.63,0,0,0,269.3,228.56Z"/><path class="cls-10" d="M278,223.19l5.87-3.61a.34.34,0,0,0,0-.58l-6.15-3.84a.63.63,0,0,0-.65,0l-5.88,3.61a.35.35,0,0,0,0,.58l6.16,3.84A.59.59,0,0,0,278,223.19Z"/><path class="cls-10" d="M286.71,217.83l5.87-3.61a.34.34,0,0,0,0-.58l-6.15-3.85a.61.61,0,0,0-.64,0l-5.88,3.62a.33.33,0,0,0,0,.57l6.15,3.85A.63.63,0,0,0,286.71,217.83Z"/><path class="cls-10" d="M295.42,212.46l5.87-3.61a.34.34,0,0,0,0-.58l-6.15-3.85a.63.63,0,0,0-.65,0L288.61,208a.34.34,0,0,0,0,.57l6.16,3.85A.63.63,0,0,0,295.42,212.46Z"/><path class="cls-10" d="M209.36,277.63l5.88-3.61a.35.35,0,0,0,0-.58l-6.16-3.85a.59.59,0,0,0-.64,0l-5.88,3.61a.34.34,0,0,0,0,.57l6.16,3.85A.61.61,0,0,0,209.36,277.63Z"/><path class="cls-10" d="M218.07,272.26l5.87-3.61a.34.34,0,0,0,0-.58l-6.15-3.84a.61.61,0,0,0-.64,0l-5.88,3.61a.33.33,0,0,0,0,.57l6.15,3.85A.63.63,0,0,0,218.07,272.26Z"/><path class="cls-10" d="M226.77,266.9l5.88-3.61a.35.35,0,0,0,0-.58l-6.16-3.85a.61.61,0,0,0-.64,0L220,262.47a.35.35,0,0,0,0,.58l6.16,3.85A.61.61,0,0,0,226.77,266.9Z"/><path class="cls-10" d="M235.48,261.53l5.87-3.61a.34.34,0,0,0,0-.58l-6.15-3.85a.61.61,0,0,0-.64,0l-5.88,3.62a.33.33,0,0,0,0,.57l6.15,3.85A.63.63,0,0,0,235.48,261.53Z"/><path class="cls-10" d="M244.18,256.16l5.88-3.61a.35.35,0,0,0,0-.58l-6.16-3.85a.59.59,0,0,0-.64,0l-5.88,3.61a.34.34,0,0,0,0,.57l6.16,3.85A.61.61,0,0,0,244.18,256.16Z"/><path class="cls-10" d="M252.89,250.79l5.87-3.61a.34.34,0,0,0,0-.58l-6.15-3.84a.61.61,0,0,0-.64,0l-5.88,3.61a.34.34,0,0,0,0,.58l6.15,3.84A.63.63,0,0,0,252.89,250.79Z"/><path class="cls-10" d="M261.59,245.43l5.88-3.61a.35.35,0,0,0,0-.58l-6.16-3.85a.61.61,0,0,0-.64,0L254.79,241a.35.35,0,0,0,0,.58l6.16,3.85A.61.61,0,0,0,261.59,245.43Z"/><path class="cls-10" d="M270.3,240.06l5.87-3.61a.34.34,0,0,0,0-.58L270,232a.61.61,0,0,0-.64,0l-5.88,3.62a.33.33,0,0,0,0,.57l6.15,3.85A.63.63,0,0,0,270.3,240.06Z"/><path class="cls-10" d="M279,234.69l5.88-3.61a.35.35,0,0,0,0-.58l-6.16-3.85a.59.59,0,0,0-.64,0l-5.88,3.61a.34.34,0,0,0,0,.57l6.16,3.85A.61.61,0,0,0,279,234.69Z"/><path class="cls-10" d="M287.71,229.32l5.87-3.61a.34.34,0,0,0,0-.58l-6.15-3.84a.61.61,0,0,0-.64,0l-5.88,3.61a.34.34,0,0,0,0,.58l6.15,3.84A.63.63,0,0,0,287.71,229.32Z"/><path class="cls-10" d="M296.41,224l5.88-3.61a.35.35,0,0,0,0-.58l-6.16-3.85a.61.61,0,0,0-.64,0l-5.88,3.61a.35.35,0,0,0,0,.58l6.16,3.85A.61.61,0,0,0,296.41,224Z"/><path class="cls-10" d="M305.12,218.59,311,215a.34.34,0,0,0,0-.58l-6.15-3.85a.61.61,0,0,0-.64,0l-5.88,3.62a.33.33,0,0,0,0,.57l6.15,3.85A.63.63,0,0,0,305.12,218.59Z"/><path class="cls-10" d="M219.07,283.76l5.87-3.61a.34.34,0,0,0,0-.58l-6.15-3.85a.63.63,0,0,0-.65,0l-5.88,3.62a.34.34,0,0,0,0,.57l6.16,3.85A.63.63,0,0,0,219.07,283.76Z"/><path class="cls-10" d="M227.77,278.39l5.88-3.61a.34.34,0,0,0,0-.58l-6.15-3.84a.59.59,0,0,0-.64,0L221,274a.33.33,0,0,0,0,.57l6.16,3.85A.61.61,0,0,0,227.77,278.39Z"/><path class="cls-10" d="M236.48,273l5.87-3.61a.34.34,0,0,0,0-.58L236.2,265a.63.63,0,0,0-.65,0l-5.88,3.61a.35.35,0,0,0,0,.58l6.16,3.84A.59.59,0,0,0,236.48,273Z"/><path class="cls-10" d="M280,246.19l5.87-3.61a.34.34,0,0,0,0-.58l-6.15-3.85a.61.61,0,0,0-.64,0l-5.88,3.62a.33.33,0,0,0,0,.57l6.16,3.85A.61.61,0,0,0,280,246.19Z"/><path class="cls-10" d="M288.71,240.82l5.87-3.61a.34.34,0,0,0,0-.58l-6.15-3.85a.63.63,0,0,0-.65,0l-5.88,3.62a.34.34,0,0,0,0,.57l6.16,3.85A.63.63,0,0,0,288.71,240.82Z"/><path class="cls-10" d="M297.41,235.45l5.87-3.61a.34.34,0,0,0,0-.58l-6.15-3.84a.61.61,0,0,0-.64,0L290.61,231a.33.33,0,0,0,0,.57l6.15,3.85A.63.63,0,0,0,297.41,235.45Z"/><path class="cls-10" d="M302.46,227.8l5.88-3.61a.35.35,0,0,0,0-.58l-2.5-1.56a.63.63,0,0,0-.65,0l-5.88,3.61a.35.35,0,0,0,0,.58l2.51,1.56A.61.61,0,0,0,302.46,227.8Z"/><path class="cls-10" d="M306.12,230.09l5.88-3.61a.35.35,0,0,0,0-.58l-2.5-1.56a.63.63,0,0,0-.65,0L303,228a.34.34,0,0,0,0,.57l2.51,1.57A.61.61,0,0,0,306.12,230.09Z"/><path class="cls-10" d="M314.82,224.72l5.87-3.61a.34.34,0,0,0,0-.58l-6.15-3.85a.61.61,0,0,0-.64,0L308,220.3a.33.33,0,0,0,0,.57l6.15,3.85A.63.63,0,0,0,314.82,224.72Z"/><path class="cls-10" d="M277.17,247.36,271,243.52a.63.63,0,0,0-.65,0l-5.88,3.61h0l-21.55,13.3h0l-4.55,2.8a.33.33,0,0,0,0,.57l6.16,3.85a.61.61,0,0,0,.64,0l5.87-3.61h0L273.87,250h0l3.3-2A.34.34,0,0,0,277.17,247.36Z"/><path class="cls-34" d="M50.29,127.57v16.5a1.34,1.34,0,0,1-.58,1.11l-.05,0-5.39,3.32L33.13,155.4a.51.51,0,0,1-.58,0,.53.53,0,0,1-.25-.45V138.86a1.7,1.7,0,0,1,.8-1.43l16.57-10.21a.38.38,0,0,1,.37,0l.07,0A.42.42,0,0,1,50.29,127.57Z"/><path class="cls-34" d="M167,55.77v16.5a1.37,1.37,0,0,1-.58,1.12l0,0L161,76.74l-11.13,6.87a.55.55,0,0,1-.59,0,.54.54,0,0,1-.24-.45V67.07a1.7,1.7,0,0,1,.79-1.44l16.58-10.21a.39.39,0,0,1,.36,0l.08,0A.4.4,0,0,1,167,55.77Z"/><path class="cls-35" d="M201.13,24.47V49.15a2,2,0,0,1-.87,1.67l-.07,0-8.07,5L175.46,66.1a.77.77,0,0,1-.87,0,.8.8,0,0,1-.37-.67V41.36a2.55,2.55,0,0,1,1.19-2.15L200.2,23.94a.6.6,0,0,1,.55-.05.39.39,0,0,1,.11.06A.63.63,0,0,1,201.13,24.47Z"/><path class="cls-18" d="M352.16,105.14v28.12a2.28,2.28,0,0,1-1,1.9l-.08.06-9.2,5.67-19,11.69a.91.91,0,0,1-1,0,1,1,0,0,1-.42-.77V124.39a2.91,2.91,0,0,1,1.36-2.45l28.25-17.4a.68.68,0,0,1,.63-.06.56.56,0,0,1,.13.07A.72.72,0,0,1,352.16,105.14Z"/><path class="cls-18" d="M128.8,29.74V57.86a2.32,2.32,0,0,1-1,1.91l-.08,0-9.2,5.67-19,11.7a.89.89,0,0,1-1,0,.93.93,0,0,1-.42-.77V49a2.93,2.93,0,0,1,1.36-2.45l28.25-17.4a.68.68,0,0,1,.63-.06l.12.07A.7.7,0,0,1,128.8,29.74Z"/><path class="cls-18" d="M117.79,101.21v28.13a2.3,2.3,0,0,1-1,1.9.24.24,0,0,0-.08.06l-9.2,5.66-19,11.7a.91.91,0,0,1-1,0,1,1,0,0,1-.42-.77V120.47A2.9,2.9,0,0,1,88.48,118l28.25-17.41a.68.68,0,0,1,.63,0,.56.56,0,0,1,.13.07A.69.69,0,0,1,117.79,101.21Z"/><path class="cls-18" d="M133.86,140.58v23.59a1.94,1.94,0,0,1-.83,1.59l-.08.05-7.7,4.75-15.93,9.81a.74.74,0,0,1-.83,0,.77.77,0,0,1-.35-.65v-23a2.43,2.43,0,0,1,1.14-2.06L133,140.08a.54.54,0,0,1,.52-.05.3.3,0,0,1,.11.06A.59.59,0,0,1,133.86,140.58Z"/><path class="cls-26" d="M327.27,99.41v35a2.86,2.86,0,0,1-1.24,2.37l-.1.07-11.44,7-23.62,14.55a1.1,1.1,0,0,1-1.24,0L285,155.57a1.33,1.33,0,0,1-.66-1.16V120.58a3.78,3.78,0,0,1,1.81-3.24l34.71-21.41a1.42,1.42,0,0,1,1.46,0l4.41,2.69a.55.55,0,0,1,.15.08A.89.89,0,0,1,327.27,99.41Z"/><path class="cls-36" d="M327.27,99.41v35a2.86,2.86,0,0,1-1.24,2.37l-.1.07-11.44,7-23.62,14.55a1.1,1.1,0,0,1-1.24,0,1.16,1.16,0,0,1-.52-1v-34.1a3.6,3.6,0,0,1,1.69-3.05l35.14-21.65a.83.83,0,0,1,.79-.07.55.55,0,0,1,.15.08A.89.89,0,0,1,327.27,99.41Z"/><path class="cls-10" d="M309.92,121.19l2.34,3.5a.52.52,0,0,0,.63.2l5.08-2a.54.54,0,0,1,.64.79l-4.05,6.09a.56.56,0,0,0-.08.4l1,5.52a.52.52,0,0,1-.52.63l-5.42,0a.53.53,0,0,0-.38.16l-5,5.24a.53.53,0,0,1-.91-.45l.87-5.54a.53.53,0,0,0-.31-.57l-3.84-1.7a.53.53,0,0,1-.08-.93l6.1-4.13a.55.55,0,0,0,.2-.25l2.71-6.94A.53.53,0,0,1,309.92,121.19Z"/><path class="cls-15" d="M236.58,2.49V26.07a1.93,1.93,0,0,1-.84,1.6s0,0-.07,0L228,32.47,212,42.28a.74.74,0,0,1-.83,0l-3.12-1.93a.89.89,0,0,1-.45-.78V16.76a2.53,2.53,0,0,1,1.22-2.18L232.26.14a.93.93,0,0,1,1,0l3,1.81a.3.3,0,0,1,.11.06A.59.59,0,0,1,236.58,2.49Z"/><path class="cls-37" d="M236.58,2.49V26.07a1.93,1.93,0,0,1-.84,1.6s0,0-.07,0L228,32.47,212,42.28a.74.74,0,0,1-.83,0,.78.78,0,0,1-.35-.65v-23A2.45,2.45,0,0,1,212,16.58L235.69,2a.57.57,0,0,1,.52,0,.3.3,0,0,1,.11.06A.59.59,0,0,1,236.58,2.49Z"/><path class="cls-10" d="M227.34,15.86A7.23,7.23,0,0,1,224,21.27c-1.87,1.12-3.38.51-3.38-1.35A7.2,7.2,0,0,1,224,14.51C225.82,13.39,227.34,14,227.34,15.86Z"/><path class="cls-10" d="M231.61,25.13l-15.29,9.19c0-4.22,3.42-9.67,7.64-12.2,2.1-1.27,4-1.56,5.41-1S231.61,23,231.61,25.13Z"/><path class="cls-38" d="M28.94,166.61V190.2a1.92,1.92,0,0,1-.84,1.59.18.18,0,0,1-.07.05l-7.71,4.75L4.4,206.4a.72.72,0,0,1-.83,0L.45,204.47a.91.91,0,0,1-.45-.79v-22.8a2.55,2.55,0,0,1,1.22-2.18l23.4-14.43a1,1,0,0,1,1,0l3,1.81a.6.6,0,0,1,.11.06A.61.61,0,0,1,28.94,166.61Z"/><path class="cls-23" d="M28.94,166.61V190.2a1.92,1.92,0,0,1-.84,1.59.18.18,0,0,1-.07.05l-7.71,4.75L4.4,206.4a.72.72,0,0,1-.83,0,.76.76,0,0,1-.35-.64v-23a2.43,2.43,0,0,1,1.13-2L28,166.11a.56.56,0,0,1,.53-.05.6.6,0,0,1,.11.06A.61.61,0,0,1,28.94,166.61Z"/><path class="cls-10" d="M15.33,196.29l-6.88-2.75c-.65-.26-.65-1.31,0-2.35s1.7-1.67,2.35-1.41l3.91,1.57,7.68-17a3.06,3.06,0,0,1,2.28-1.92c.79,0,1,.89.54,2Z"/><path class="cls-26" d="M91.12,95.59v23.59a1.91,1.91,0,0,1-.83,1.59s-.05,0-.07,0l-7.71,4.75-15.93,9.81a.74.74,0,0,1-.83,0l-3.12-1.92a.93.93,0,0,1-.45-.79v-22.8a2.53,2.53,0,0,1,1.22-2.18L86.8,93.24a1,1,0,0,1,1,0l3,1.81a.27.27,0,0,1,.1.06A.59.59,0,0,1,91.12,95.59Z"/><path class="cls-39" d="M91.12,95.59v23.59a1.91,1.91,0,0,1-.83,1.59s-.05,0-.07,0l-7.71,4.75-15.93,9.81a.74.74,0,0,1-.83,0,.77.77,0,0,1-.35-.65v-23a2.43,2.43,0,0,1,1.14-2.06L90.23,95.09a.56.56,0,0,1,.53,0,.27.27,0,0,1,.1.06A.59.59,0,0,1,91.12,95.59Z"/><path class="cls-10" d="M74,119.88a2.63,2.63,0,0,1-2.34,2.25,1.73,1.73,0,0,1-1.55-2.25,2.63,2.63,0,0,1,2.34-2.24A1.72,1.72,0,0,1,74,119.88Z"/><path class="cls-10" d="M80.91,116a2.63,2.63,0,0,1-2.35,2.24A1.73,1.73,0,0,1,77,116a2.64,2.64,0,0,1,2.34-2.25A1.74,1.74,0,0,1,80.91,116Z"/><path class="cls-10" d="M87.81,112.14a2.64,2.64,0,0,1-2.34,2.24,1.73,1.73,0,0,1-1.55-2.24,2.62,2.62,0,0,1,2.34-2.25A1.73,1.73,0,0,1,87.81,112.14Z"/><path class="cls-26" d="M150.25,157.27v23.58a2,2,0,0,1-.83,1.6l-.08,0-7.7,4.76-15.93,9.81a.74.74,0,0,1-.83,0l-3.12-1.92a.91.91,0,0,1-.45-.79v-22.8a2.55,2.55,0,0,1,1.22-2.18l23.4-14.43a1,1,0,0,1,1,0l3,1.8.11.06A.61.61,0,0,1,150.25,157.27Z"/><path class="cls-9" d="M150.25,157.27v23.58a2,2,0,0,1-.83,1.6l-.08,0-7.7,4.76-15.93,9.81a.74.74,0,0,1-.83,0,.75.75,0,0,1-.35-.64v-23a2.42,2.42,0,0,1,1.14-2l23.69-14.6a.57.57,0,0,1,.52,0l.11.06A.61.61,0,0,1,150.25,157.27Z"/><polygon class="cls-10" points="145.65 166.66 145.65 168.3 138.01 177.27 130.35 177.85 130.35 176.22 145.65 166.66"/><polygon class="cls-10" points="138.01 178.22 145.65 169.25 145.65 177.62 130.35 187.19 130.35 178.81 138.01 178.22"/><path class="cls-15" d="M331.63,24.89v35a2.89,2.89,0,0,1-1.24,2.37l-.1.07L310.13,74.57,286.51,89.13a1.12,1.12,0,0,1-1.24,0l-4.63-2.86a1.35,1.35,0,0,1-.66-1.16V51.26A3.75,3.75,0,0,1,281.79,48l43.43-26.62a1.42,1.42,0,0,1,1.46,0l4.41,2.69a.55.55,0,0,1,.15.08A.89.89,0,0,1,331.63,24.89Z"/><path class="cls-13" d="M317.62,23.3v6.63a.54.54,0,0,1-.24.45h0l-14.17,8.77-4.48,2.76a.19.19,0,0,1-.23,0l-.88-.54a.25.25,0,0,1-.12-.22V34.74a.7.7,0,0,1,.34-.61L316.4,22.64a.28.28,0,0,1,.28,0l.84.5,0,0A.17.17,0,0,1,317.62,23.3Z"/><path class="cls-10" d="M317.62,23.3v6.63a.54.54,0,0,1-.24.45h0L298.71,41.92a.19.19,0,0,1-.23,0,.21.21,0,0,1-.1-.18V35.27a.7.7,0,0,1,.32-.58l18.67-11.53a.16.16,0,0,1,.15,0l0,0A.17.17,0,0,1,317.62,23.3Z"/><path class="cls-13" d="M328.84,17.55l0,0L328,17a.28.28,0,0,0-.28,0L309.11,28.52a.72.72,0,0,0-.34.61V36l.9.57v-.28l.1.06a.23.23,0,0,0,.24,0l4.48-2.76,14.17-8.77h0a.53.53,0,0,0,.23-.45V17.69A.17.17,0,0,0,328.84,17.55Z"/><path class="cls-15" d="M297.88,32.35l-4.55-2.63h0a1.13,1.13,0,0,0-1.21,0L282,36.15a4.3,4.3,0,0,0-2,3.61V53.18l13.89-8.8V37.46l.34.66s1.67.48,1.81.48,2.62,1.57,2.62,1.57V34.11Z"/><path class="cls-40" d="M331.25,24.16a.6.6,0,0,0-.16-.08.81.81,0,0,0-.78.07L298.65,43.53V33.42a1.14,1.14,0,0,0-1.76-1l-10.15,6.43a4.27,4.27,0,0,0-2,3.61V88.15a1.13,1.13,0,0,0,.52,1,1.1,1.1,0,0,0,1.23,0l43.78-26.81.11-.07a2.88,2.88,0,0,0,1.23-2.37v-35A.88.88,0,0,0,331.25,24.16Z"/><path class="cls-10" d="M328.84,17.55l0,0a.16.16,0,0,0-.15,0L310,29.08a.72.72,0,0,0-.32.58v6.87l19.24-11.89V17.69A.17.17,0,0,0,328.84,17.55Z"/><polygon class="cls-41" points="192.7 100.02 160.44 119.88 160.44 119.89 155.91 122.69 160.44 125.18 160.44 242.84 258.92 303.04 305.48 274.37 192.7 100.02"/><path class="cls-42" d="M376.3,260.64l-89.07,54.87-25.46-17.25a41.22,41.22,0,0,1-18.08-34.09v-.32a43,43,0,0,0-20.5-36.66,12.9,12.9,0,0,0-12.85-.48l0,0a13.43,13.43,0,0,0-1.73,1.07,12.93,12.93,0,0,0-5.34,10.55v6.31a10,10,0,0,1-15.36,8.48h0a22,22,0,0,1-10.3-18.63V108a12.33,12.33,0,0,0-9.67-12.07c-5.32,1.35-10.55,2.56-10.55,2.56l86.74-53.51,3.66-2.34a13,13,0,0,1,1.31-.72A12.21,12.21,0,0,1,253,40.76a12.39,12.39,0,0,1,13.64,12.32V179.63a22,22,0,0,0,2.78,10.7L297.61,173a12.29,12.29,0,0,1,1.87-1.14l0,0a13.11,13.11,0,0,1,5.92-1.42,13,13,0,0,1,6.83,2A43,43,0,0,1,332.78,209v.35a41.18,41.18,0,0,0,18.07,34.08Z"/><path class="cls-10" d="M280.55,202.22l5-3.05A10.17,10.17,0,0,1,280.55,202.22Z"/><path class="cls-43" d="M232.14,234.8l-32.73,20-.13-2a9.93,9.93,0,0,0,3.95-8v-6.31a12.94,12.94,0,0,1,5.34-10.55,13.43,13.43,0,0,1,1.73-1.07l0,0a13,13,0,0,1,12.85.48A62.76,62.76,0,0,1,232.14,234.8Z"/><path class="cls-44" d="M177.56,109.34V108a12.36,12.36,0,0,0-18.89-10.5h0a11.89,11.89,0,0,0-5.61,10.1v16.87Z"/><polygon class="cls-4" points="376.3 260.64 376.3 263.08 287.23 317.89 287.23 315.51 376.3 260.64"/><path class="cls-45" d="M269.42,190.33l-59.07,36.38-.06,0a10.91,10.91,0,0,0-1.3.78l-.42.29a13,13,0,0,0-5.34,10.55v6.31a10,10,0,0,1-15.36,8.49h0a22,22,0,0,1-10.31-18.64V107.94a12.32,12.32,0,0,0-9.66-12.06c-5.32,1.36-10.55,2.56-10.55,2.56l86.74-53.51,3.66-2.35a14,14,0,0,1,1.31-.71A12.25,12.25,0,0,1,253,40.75a12.39,12.39,0,0,1,13.65,12.32V179.63A21.88,21.88,0,0,0,269.42,190.33Z"/><path class="cls-4" d="M167.89,95.88a12.32,12.32,0,0,1,9.67,12.06V234.51a22,22,0,0,0,10.3,18.63h0a10,10,0,0,0,15.36-8.48v-6.32a12.94,12.94,0,0,1,5.34-10.55,12.34,12.34,0,0,1,1.73-1.06l0,0a13,13,0,0,1,12.85.48,43,43,0,0,1,20.5,36.66v.33a41.23,41.23,0,0,0,18.08,34.09l25.46,17.25v2.38l-26.37-17.7s-8.77-7.37-11.24-10.85A45,45,0,0,1,243,274.28c-1-5-1-10.95-1.23-14.38a50.09,50.09,0,0,0-4.71-15.51,38.27,38.27,0,0,0-14.73-15.84c-2.75-1.72-8.43-3.08-12.65.24a12.34,12.34,0,0,0-4.76,9.47c-.29,6.49,1,11.71-4.5,15.83-6,4.49-9.86,2.69-12.7,1.3a23.46,23.46,0,0,1-8.4-8.22,21.74,21.74,0,0,1-3.57-13l-.19-125.67s.61-8.39-7.86-10.93c0,0-7.37-1.64-11.26,4.22a10.22,10.22,0,0,0-1.65,5.51c-.15,3.56.11,16,.11,16l-1.83,1.14V107.21a13.48,13.48,0,0,1,1.59-5.58A12.29,12.29,0,0,1,167.89,95.88Z"/><path class="cls-46" d="M205.2,218.28h0Z"/><path class="cls-47" d="M215.7,114.68,182,135.42a.74.74,0,0,1-1.13-.63V114.22a2.07,2.07,0,0,1,1-1.76l34.11-21a.6.6,0,0,1,.91.51v20.64A2.41,2.41,0,0,1,215.7,114.68Z"/><path class="cls-4" d="M263.65,91.5l-82.29,50.73a.34.34,0,0,1-.51-.29v-2.26a.6.6,0,0,1,.29-.51l82.32-50.76a.34.34,0,0,1,.52.29v2.19A.71.71,0,0,1,263.65,91.5Z"/><path class="cls-4" d="M263.65,85.26l-44,27a.33.33,0,0,1-.5-.28v-2.26a.61.61,0,0,1,.29-.52l44-27.06a.34.34,0,0,1,.52.29v2.19A.69.69,0,0,1,263.65,85.26Z"/><path class="cls-4" d="M263.65,78.65l-44,27a.33.33,0,0,1-.5-.29v-2.26a.6.6,0,0,1,.29-.51l44-27.07a.34.34,0,0,1,.52.29v2.2A.7.7,0,0,1,263.65,78.65Z"/><path class="cls-4" d="M263.65,72l-44,27a.33.33,0,0,1-.5-.28V96.53a.61.61,0,0,1,.29-.52l44-27.06a.34.34,0,0,1,.52.29v2.19A.7.7,0,0,1,263.65,72Z"/><path class="cls-9" d="M263.65,65.41l-44,27.05a.33.33,0,0,1-.5-.29V89.91a.61.61,0,0,1,.29-.52l44-27.06a.34.34,0,0,1,.52.29v2.19A.68.68,0,0,1,263.65,65.41Z"/><path class="cls-4" d="M219.41,178.19l19.08-11.71a.27.27,0,0,1,.42.23V169a.76.76,0,0,1-.36.65l-18.91,11.62a.34.34,0,0,1-.51-.29v-2.26A.65.65,0,0,1,219.41,178.19Z"/><path class="cls-4" d="M264,151.43v2.19a.7.7,0,0,1-.34.6l-21.57,13.26a.35.35,0,0,1-.53-.3V165a.76.76,0,0,1,.36-.64l21.55-13.23A.34.34,0,0,1,264,151.43Z"/><path class="cls-4" d="M263.65,147.6l-48.28,29.7a.34.34,0,0,1-.51-.29v-2.26a.63.63,0,0,1,.29-.52l48.31-29.71a.34.34,0,0,1,.52.29V147A.68.68,0,0,1,263.65,147.6Z"/><path class="cls-4" d="M263.65,141l-44,27a.33.33,0,0,1-.5-.28v-2.27a.6.6,0,0,1,.29-.51l44-27.06a.34.34,0,0,1,.52.29v2.19A.7.7,0,0,1,263.65,141Z"/><path class="cls-4" d="M263.65,134.37l-44,27a.33.33,0,0,1-.5-.28v-2.26a.61.61,0,0,1,.29-.52l44-27.06a.34.34,0,0,1,.52.29v2.19A.69.69,0,0,1,263.65,134.37Z"/><path class="cls-4" d="M263.65,179.71l-44,27a.33.33,0,0,1-.5-.29V204.2a.61.61,0,0,1,.29-.52l44-27.06a.34.34,0,0,1,.52.29v2.19A.71.71,0,0,1,263.65,179.71Z"/><path class="cls-48" d="M263.84,185.67,209.55,219c-.27.17-.36,0-.39-.11h0c0-.51,0-1,0-1.54v-.86a.74.74,0,0,1,.21-.54l.05,0,54.22-33.33a.32.32,0,0,1,.49.26c.05.59.12,1.18.22,1.76A1,1,0,0,1,263.84,185.67Z"/><path class="cls-4" d="M265.44,190.62l-54.55,33.53a.54.54,0,0,1-.8-.29c-.17-.53-.31-1.07-.44-1.62a.69.69,0,0,1,.32-.73l54.65-33.58a.37.37,0,0,1,.55.21c.17.51.36,1,.57,1.51A.78.78,0,0,1,265.44,190.62Z"/><path class="cls-4" d="M263.65,173.09l-44,27a.33.33,0,0,1-.5-.28v-2.26a.61.61,0,0,1,.29-.52l44-27.06a.34.34,0,0,1,.52.29v2.19A.7.7,0,0,1,263.65,173.09Z"/><path class="cls-4" d="M263.65,166.47l-44,27.05a.33.33,0,0,1-.5-.29V191a.61.61,0,0,1,.29-.52l44-27.06a.34.34,0,0,1,.52.29v2.19A.68.68,0,0,1,263.65,166.47Z"/><path class="cls-4" d="M219.41,183.84l26-16a.22.22,0,0,1,.34.19v2.52a.48.48,0,0,1-.22.41l-25.9,15.92a.33.33,0,0,1-.51-.28v-2.27A.61.61,0,0,1,219.41,183.84Z"/><path class="cls-23" d="M264,157.06v2.2a.68.68,0,0,1-.34.59L248.84,169a.29.29,0,0,1-.43-.24V166.3a.5.5,0,0,1,.24-.43l14.81-9.1A.35.35,0,0,1,264,157.06Z"/><path class="cls-4" d="M212.52,185.54,182,204.33a.33.33,0,0,1-.51-.28v-2.26a.6.6,0,0,1,.29-.52l30.53-18.81a.34.34,0,0,1,.52.29v2.19A.71.71,0,0,1,212.52,185.54Z"/><path class="cls-49" d="M212.52,178.92,182,197.71a.33.33,0,0,1-.51-.28v-2.26a.61.61,0,0,1,.29-.52l30.53-18.81a.34.34,0,0,1,.52.29v2.19A.69.69,0,0,1,212.52,178.92Z"/><path class="cls-50" d="M212.52,173.09,182,191.88a.33.33,0,0,1-.51-.28V180.92a.61.61,0,0,1,.29-.52l30.53-18.81a.34.34,0,0,1,.52.3v10.6A.71.71,0,0,1,212.52,173.09Z"/><path class="cls-4" d="M212.52,211,186.2,227.26a.33.33,0,0,1-.5-.28v-2.26a.63.63,0,0,1,.28-.52l26.36-16.26a.34.34,0,0,1,.52.29v2.19A.72.72,0,0,1,212.52,211Z"/><path class="cls-4" d="M212.52,204.41,182,223.2a.33.33,0,0,1-.51-.28v-2.26a.6.6,0,0,1,.29-.52l30.53-18.81a.34.34,0,0,1,.52.29v2.19A.71.71,0,0,1,212.52,204.41Z"/><path class="cls-4" d="M212.52,197.79,182,216.58a.33.33,0,0,1-.51-.28V214a.61.61,0,0,1,.29-.52l30.53-18.81a.34.34,0,0,1,.52.29v2.19A.69.69,0,0,1,212.52,197.79Z"/><path class="cls-4" d="M212.52,191.18,182,210a.33.33,0,0,1-.51-.28v-2.27a.6.6,0,0,1,.29-.51l30.53-18.81a.34.34,0,0,1,.52.29v2.19A.71.71,0,0,1,212.52,191.18Z"/><path class="cls-4" d="M241.48,112.35l-60.12,37.1a.33.33,0,0,1-.51-.28v-2.26a.61.61,0,0,1,.29-.52l60.16-37.12a.34.34,0,0,1,.52.29v2.19A.7.7,0,0,1,241.48,112.35Z"/><path class="cls-4" d="M181.14,153.61l27.54-17a.28.28,0,0,1,.43.23v2.25a.82.82,0,0,1-.39.69l-27.37,16.88a.33.33,0,0,1-.5-.29v-2.27A.6.6,0,0,1,181.14,153.61Z"/><path class="cls-4" d="M264,103.15v2.19a.7.7,0,0,1-.34.6l-51.31,31.63a.39.39,0,0,1-.6-.33v-2.06a.8.8,0,0,1,.38-.67l51.34-31.65A.35.35,0,0,1,264,103.15Z"/><path class="cls-4" d="M263.65,113.16,181.36,163.9a.34.34,0,0,1-.51-.29v-2.26a.63.63,0,0,1,.29-.52l82.32-50.75a.34.34,0,0,1,.52.29v2.19A.68.68,0,0,1,263.65,113.16Z"/><path class="cls-4" d="M181.14,168.06,222.6,142.5a.36.36,0,0,1,.55.3v2.13a.77.77,0,0,1-.36.65l-41.44,25.54a.33.33,0,0,1-.5-.28v-2.26A.58.58,0,0,1,181.14,168.06Z"/><path class="cls-4" d="M264,117.59v2.2a.7.7,0,0,1-.34.59l-37.18,22.93a.44.44,0,0,1-.67-.38V141a.83.83,0,0,1,.4-.71l37.26-23A.35.35,0,0,1,264,117.59Z"/><path class="cls-4" d="M263.65,127.61l-82.29,50.73a.33.33,0,0,1-.51-.28V175.8a.61.61,0,0,1,.29-.52l82.32-50.75a.34.34,0,0,1,.52.29V127A.7.7,0,0,1,263.65,127.61Z"/><path class="cls-51" d="M208.2,228.08a13,13,0,0,0-5,10.27v3.75a.46.46,0,0,1-.22.39c-1.52.92-10.56,6.46-12.2,7.47a.46.46,0,0,1-.49,0,21.72,21.72,0,0,1-4.84-4.36,19,19,0,0,1-1.43-1.94l0,0c-2.72-4.53-2.82-10.79-2.2-11.17l22.65-13.93a1.41,1.41,0,0,1,.64-.24c.27,0,.55.09.62.84,0,0,0,.07,0,.1h0A21.75,21.75,0,0,0,208.2,228.08Z"/><path class="cls-4" d="M203.23,244.1v.55a9.34,9.34,0,0,1-.11,1.51l-7.89,4.74a3.12,3.12,0,0,1-2.76.21l-.5-.21Z"/><path class="cls-52" d="M288.47,223.37,247,249a1.4,1.4,0,0,1-2.09-.77,42.94,42.94,0,0,0-18.73-24.44,13.44,13.44,0,0,0-3.46-1.51.75.75,0,0,1-.18-1.36l6.58-4.08,22.67-14,11.55-7.15a4.17,4.17,0,0,1,2.94-.59,12.88,12.88,0,0,1,4.42,1.73A42.84,42.84,0,0,1,289.39,221,2.11,2.11,0,0,1,288.47,223.37Z"/><path class="cls-4" d="M308.09,175.11,288,187.49l-12.71,7.84a.74.74,0,0,1-.76,0l-.73-.46a9.21,9.21,0,0,0-1.27-.68l-.06-.05c-.17-.09-.05-.21,0-.26l0,0,15.64-9.65,17-10.45a12.45,12.45,0,0,1,2.84,1.3Z"/><path class="cls-4" d="M312.64,178.37a.4.4,0,0,1-.05.64l-24.71,15.23L280.23,199a.75.75,0,0,1-.9-.07l-.92-.77a.77.77,0,0,1,.07-1.26L288,191l22.3-13.75a.79.79,0,0,1,.88,0C311.69,177.6,312.17,178,312.64,178.37Z"/><path class="cls-4" d="M316.46,183.3l-32,19.71a.86.86,0,0,1-1.1-.17l-.87-.94a.62.62,0,0,1,.12-1l2.89-1.77,29.22-18a.92.92,0,0,1,1.14.12l.76.77A.82.82,0,0,1,316.46,183.3Z"/><path class="cls-4" d="M320.29,187.59,288,207.5a.89.89,0,0,1-1.2-.26l-.64-.92a.69.69,0,0,1,.19-1l32.19-19.84a.88.88,0,0,1,1.16.2c.26.35.52.69.76,1A.61.61,0,0,1,320.29,187.59Z"/><path class="cls-4" d="M323.43,192.32s0,0,0,0l-32.59,20.09a.81.81,0,0,1-1.12-.33l-.42-.81-.2-.36a.54.54,0,0,1,.13-.71l0,0,32.89-20.26a.35.35,0,0,1,.49.11c.33.55.66,1.12.95,1.69a.06.06,0,0,1,0,0A.48.48,0,0,1,323.43,192.32Z"/><path class="cls-4" d="M325.8,197.53,292.51,218a.29.29,0,0,1-.42-.15c-.22-.67-.45-1.34-.71-2a.36.36,0,0,1,.14-.43L324.69,195a.34.34,0,0,1,.48.15c.27.65.53,1.31.77,2A.37.37,0,0,1,325.8,197.53Z"/><path class="cls-4" d="M328.2,206.79a1,1,0,0,1-.45.91l-80.57,49.62a.34.34,0,0,1-.51-.28v-2.27a.58.58,0,0,1,.29-.51l80.36-49.49a.42.42,0,0,1,.64.3C328.05,205.64,328.13,206.21,328.2,206.79Z"/><path class="cls-4" d="M328.57,214.74a.73.73,0,0,1-.35.69l-81,49.91a.32.32,0,0,1-.19.05.33.33,0,0,1-.32-.33V262.8a.51.51,0,0,1,.09-.3.53.53,0,0,1,.2-.22l80.92-49.83a.39.39,0,0,1,.6.33C328.5,213.44,328.52,214.09,328.57,214.74Z"/><path class="cls-4" d="M329.69,221.91a.79.79,0,0,1-.36.87L249,272.25a.44.44,0,0,1-.65-.23c-.17-.6-.33-1.2-.47-1.79a.59.59,0,0,1,.27-.65L328.64,220a.45.45,0,0,1,.68.3C329.43,220.84,329.55,221.38,329.69,221.91Z"/><path class="cls-4" d="M331.88,228.4a.82.82,0,0,1-.32,1l-80.07,49.32a.43.43,0,0,1-.61-.18c-.27-.51-.5-1.05-.74-1.58a.61.61,0,0,1,.25-.76l80.2-49.39a.51.51,0,0,1,.75.25C331.51,227.53,331.69,228,331.88,228.4Z"/><path class="cls-4" d="M335.21,234.57a.53.53,0,0,1-.16.74L255,284.6a.47.47,0,0,1-.61-.12c-.34-.49-.69-1-1-1.48a.5.5,0,0,1,.15-.68l80-49.3a.58.58,0,0,1,.79.2C334.63,233.68,334.92,234.12,335.21,234.57Z"/><path class="cls-4" d="M339.41,240a.49.49,0,0,1-.1.75l-79.8,49.15a.5.5,0,0,1-.59-.06c-.43-.43-.86-.88-1.28-1.33a.48.48,0,0,1,.1-.74l79.73-49.1a.69.69,0,0,1,.89.14C338.7,239.18,339.05,239.58,339.41,240Z"/><path class="cls-4" d="M311.17,265.2a.54.54,0,0,1,0,.88l-46.06,28.38a.52.52,0,0,1-.56,0c-.55-.39-1.09-.78-1.63-1.19a.41.41,0,0,1,0-.67l46.14-28.43a.75.75,0,0,1,.89.07C310.35,264.56,310.76,264.88,311.17,265.2Z"/><path class="cls-53" d="M312.58,264.43l10.5,6.25,32.11,3,12.88-7.93-28.53-3.39-26.88,1.46A.34.34,0,0,0,312.58,264.43Z"/><path class="cls-20" d="M321.1,247.06l2,2,7.51,7.62-17.74,7.69a.45.45,0,0,1-.64-.33.37.37,0,0,1,0-.38Z"/><path class="cls-21" d="M321.1,247.06l2,2-1.42,3.87-9.45,11.11a.37.37,0,0,1,0-.38Z"/><path class="cls-54" d="M421.52,159.19l2.71,2.88,7,7.42-98.86,86h0a4.6,4.6,0,0,1-.76.65,5,5,0,0,1-2.63.9,7.86,7.86,0,0,1-5.7-2.19,8.37,8.37,0,0,1-1.57-1.94h0a6.39,6.39,0,0,1-.64-5.73,4.47,4.47,0,0,1,.86-1.33,1.19,1.19,0,0,1,.19-.2l.29-.24a.81.81,0,0,1,.1-.09l.09-.06Z"/><path class="cls-7" d="M421.52,159.19l2.71,2.88-2.87,4.27L321.69,253h0a6.39,6.39,0,0,1-.64-5.73,4.47,4.47,0,0,1,.86-1.33,1.19,1.19,0,0,1,.19-.2l.29-.24a.81.81,0,0,1,.1-.09l.09-.06Z"/><path class="cls-23" d="M430.61,159.83c2.88,2.67,3.49,6.69,1.36,9h0a3.64,3.64,0,0,1-.76.66,5.08,5.08,0,0,1-2.63.89,7.87,7.87,0,0,1-5.7-2.19c-2.39-2.21-3.22-5.35-2.21-7.68a4.32,4.32,0,0,1,.85-1.32,1.26,1.26,0,0,1,.2-.2l.28-.25.11-.08C424.34,157,428,157.39,430.61,159.83Z"/><path class="cls-24" d="M404.71,173.82l8.42-7.3a.25.25,0,0,0-.09.09,4.62,4.62,0,0,0-.78,1.24,6.42,6.42,0,0,0,.69,5.8,7.4,7.4,0,0,0,1.52,1.9,7.93,7.93,0,0,0,5.72,2.17,5.33,5.33,0,0,0,2-.52,1.77,1.77,0,0,0,.52-.3l-8,7-.53.44a5.24,5.24,0,0,1-2.61.87,7.8,7.8,0,0,1-5.71-2.19,7.93,7.93,0,0,1-1.55-1.9,6.43,6.43,0,0,1-.67-5.77,4.56,4.56,0,0,1,.87-1.33C404.59,174,404.66,173.89,404.71,173.82Z"/><path class="cls-10" d="M413.33,166.33a.85.85,0,0,0-.2.17c.05-.05.08-.06.09-.09Z"/><path class="cls-55" d="M421.63,159.12a3.71,3.71,0,0,0-.84,1.33,6.27,6.27,0,0,0,.65,5.74,8.58,8.58,0,0,0,1.57,1.93,7.69,7.69,0,0,0,5.68,2.19,5.25,5.25,0,0,0,2.64-.9l-8.08,7.06a3.6,3.6,0,0,1-.53.43,1.77,1.77,0,0,1-.52.3,4.8,4.8,0,0,1-2.1.6,7.89,7.89,0,0,1-5.71-2.19,9,9,0,0,1-1.55-1.88,6.5,6.5,0,0,1-.67-5.79,4.32,4.32,0,0,1,.87-1.33.25.25,0,0,1,.09-.09v0c.05-.05.08-.06.09-.09l.11-.08Z"/><path class="cls-2" d="M186.28,325l-26.85,16.3a6.15,6.15,0,0,1-6.38,0L99.39,308.51a2.05,2.05,0,0,1,0-3.51l28-17a5.3,5.3,0,0,1,5.5,0l53.43,32.65A2.53,2.53,0,0,1,186.28,325Z"/><path class="cls-4" d="M187.5,311.88V316h0a2.48,2.48,0,0,1-1.19,2.34l-26.85,16.3a6.17,6.17,0,0,1-6.38,0L99.39,301.83a2,2,0,0,1-.94-1.37h0v-4.66a2,2,0,0,1,1-1.76l28-17a5.29,5.29,0,0,1,5.49,0l53.44,32.65A2.49,2.49,0,0,1,187.5,311.88Z"/><path class="cls-10" d="M187.5,311.88a2.52,2.52,0,0,1-1.22,2.16l-26.85,16.31a6.17,6.17,0,0,1-6.38,0L99.39,297.54a2,2,0,0,1-1-1.75,2,2,0,0,1,1-1.76l28-17a5.29,5.29,0,0,1,5.49,0l53.44,32.65A2.49,2.49,0,0,1,187.5,311.88Z"/><path class="cls-56" d="M182.48,311a2.23,2.23,0,0,1-1.08,1.92l-23.83,14.47a5.48,5.48,0,0,1-5.66,0l-47.62-29.09a1.81,1.81,0,0,1-.87-1.55,1.84,1.84,0,0,1,.88-1.57l24.82-15.05a4.66,4.66,0,0,1,4.87,0l47.42,29A2.19,2.19,0,0,1,182.48,311Z"/><polygon class="cls-8" points="162.38 309.52 152.54 315.51 150.07 314 159.91 308.01 162.38 309.52"/><polygon class="cls-8" points="161.85 302.78 142.15 314.76 139.68 313.25 159.38 301.27 161.85 302.78"/><polygon class="cls-8" points="155.34 298.79 135.64 310.76 133.17 309.25 152.87 297.28 155.34 298.79"/><path class="cls-8" d="M140.38,297.09c0,2.38-3.8,4.31-8.49,4.31s-8.48-1.93-8.48-4.31,3.8-4.31,8.48-4.31S140.38,294.71,140.38,297.09Z"/></g></g></g></svg>