<svg width="96" height="69" viewBox="0 0 96 69" fill="none" xmlns="http://www.w3.org/2000/svg">
                  <path d="M42.7678 56.4536H1.71071C1.257 56.4536 0.821878 56.2733 0.501057 55.9525C0.180236 55.6317 0 55.1966 0 54.7428V1.71071C0 1.257 0.180236 0.821878 0.501057 0.501057C0.821878 0.180236 1.257 0 1.71071 0H94.0893C94.543 0 94.9781 0.180236 95.2989 0.501057C95.6197 0.821878 95.8 1.257 95.8 1.71071V21.6747C95.8 22.1285 95.6197 22.5636 95.2989 22.8844C94.9781 23.2052 94.543 23.3855 94.0893 23.3855C93.6355 23.3855 93.2004 23.2052 92.8796 22.8844C92.5588 22.5636 92.3785 22.1285 92.3785 21.6747V3.42143H3.42143V53.0321H42.7678C43.2216 53.0321 43.6567 53.2124 43.9775 53.5332C44.2983 53.854 44.4786 54.2891 44.4786 54.7428C44.4786 55.1966 44.2983 55.6317 43.9775 55.9525C43.6567 56.2733 43.2216 56.4536 42.7678 56.4536Z" fill="#0EC8DB"></path>
                  <path d="M94.0892 10.2644H25.6607C25.2069 10.2644 24.7718 10.0842 24.451 9.76333C24.1302 9.44251 23.9499 9.00738 23.9499 8.55367C23.9499 8.09996 24.1302 7.66483 24.451 7.34401C24.7718 7.02319 25.2069 6.84296 25.6607 6.84296H94.0892C94.5429 6.84296 94.978 7.02319 95.2989 7.34401C95.6197 7.66483 95.7999 8.09996 95.7999 8.55367C95.7999 9.00738 95.6197 9.44251 95.2989 9.76333C94.978 10.0842 94.5429 10.2644 94.0892 10.2644ZM18.8178 10.2644C18.3642 10.2612 17.9293 10.0835 17.6032 9.76828C17.4522 9.60191 17.3307 9.41099 17.2439 9.20374C17.1477 9.00088 17.1008 8.77812 17.1071 8.55367C17.1071 8.09996 17.2873 7.66483 17.6081 7.34401C17.929 7.02319 18.3641 6.84296 18.8178 6.84296C19.2715 6.84296 19.7066 7.02319 20.0275 7.34401C20.3483 7.66483 20.5285 8.09996 20.5285 8.55367C20.5258 8.77722 20.4793 8.99808 20.3917 9.20374C20.3049 9.41099 20.1834 9.60191 20.0324 9.76828C19.7042 10.0803 19.2706 10.2574 18.8178 10.2644ZM13.6857 10.2644C13.3473 10.2631 13.0169 10.1619 12.7359 9.97352C12.4548 9.78513 12.2357 9.51793 12.106 9.20546C11.9762 8.89299 11.9417 8.54917 12.0066 8.21712C12.0716 7.88508 12.2331 7.57962 12.4711 7.33907C12.714 7.10553 13.0193 6.94732 13.3502 6.88357C13.6811 6.81982 14.0234 6.85325 14.3357 6.97982C14.5449 7.06278 14.7365 7.18469 14.9003 7.33907C15.1049 7.53568 15.2565 7.78078 15.3411 8.05163C15.4257 8.32248 15.4406 8.61031 15.3843 8.88843C15.328 9.16655 15.2023 9.42594 15.019 9.64255C14.8357 9.85917 14.6007 10.026 14.3357 10.1275C14.1301 10.2152 13.9092 10.2617 13.6857 10.2644ZM8.55352 10.2644C8.10064 10.2577 7.66693 10.0806 7.33891 9.76828C7.18791 9.60191 7.06641 9.41099 6.97966 9.20374C6.892 8.99808 6.84551 8.77722 6.8428 8.55367C6.84083 8.21388 6.94009 7.8812 7.12792 7.59805C7.31576 7.31489 7.58367 7.09408 7.89749 6.96378C8.21131 6.83348 8.55682 6.79959 8.88998 6.86643C9.22314 6.93327 9.52884 7.09781 9.76812 7.33907C10.0804 7.66708 10.2576 8.1008 10.2642 8.55367C10.2615 8.77722 10.215 8.99808 10.1274 9.20374C10.0406 9.41099 9.91912 9.60191 9.76812 9.76828C9.43992 10.0803 9.00632 10.2574 8.55352 10.2644ZM53.0321 68.4287H42.7678C42.3141 68.4287 41.879 68.2484 41.5581 67.9276C41.2373 67.6068 41.0571 67.1716 41.0571 66.7179V53.0322C41.0571 52.5785 41.2373 52.1434 41.5581 51.8226C41.879 51.5018 42.3141 51.3215 42.7678 51.3215H45.6247C46.0784 51.3215 46.5135 51.5018 46.8343 51.8226C47.1552 52.1434 47.3354 52.5785 47.3354 53.0322C47.3354 53.4859 47.1552 53.9211 46.8343 54.2419C46.5135 54.5627 46.0784 54.7429 45.6247 54.7429H44.4785V65.0072H51.3214V60.4396C51.3214 59.9859 51.5016 59.5508 51.8224 59.23C52.1432 58.9091 52.5784 58.7289 53.0321 58.7289C53.4858 58.7289 53.9209 58.9091 54.2417 59.23C54.5626 59.5508 54.7428 59.9859 54.7428 60.4396V66.7179C54.7428 67.1716 54.5626 67.6068 54.2417 67.9276C53.9209 68.2484 53.4858 68.4287 53.0321 68.4287Z" fill="#0EC8DB"></path>
                  <path d="M56.4536 68.4286H39.3465C38.8927 68.4286 38.4576 68.2484 38.1368 67.9275C37.816 67.6067 37.6357 67.1716 37.6357 66.7179C37.6357 66.2642 37.816 65.829 38.1368 65.5082C38.4576 65.1874 38.8927 65.0072 39.3465 65.0072H56.4536C56.9073 65.0072 57.3424 65.1874 57.6633 65.5082C57.9841 65.829 58.1643 66.2642 58.1643 66.7179C58.1643 67.1716 57.9841 67.6067 57.6633 67.9275C57.3424 68.2484 56.9073 68.4286 56.4536 68.4286ZM76.9822 63.2965H68.4286C67.9749 63.2965 67.5398 63.1162 67.2189 62.7954C66.8981 62.4746 66.7179 62.0394 66.7179 61.5857V56.522C66.268 56.3578 65.8283 56.1748 65.3989 55.978L61.8184 59.5551C61.4976 59.8758 61.0625 60.056 60.6089 60.056C60.1553 60.056 59.7202 59.8758 59.3994 59.5551L53.3521 53.5077C53.0314 53.1869 52.8512 52.7519 52.8512 52.2983C52.8512 51.8447 53.0314 51.4096 53.3521 51.0888L56.9292 47.5083C56.73 47.0764 56.5491 46.6364 56.3869 46.1893H51.3215C50.8677 46.1893 50.4326 46.0091 50.1118 45.6883C49.791 45.3674 49.6107 44.9323 49.6107 44.4786V35.925C49.6107 35.4713 49.791 35.0362 50.1118 34.7154C50.4326 34.3946 50.8677 34.2143 51.3215 34.2143H56.3852C56.5511 33.7644 56.7307 33.3247 56.9292 32.8954L53.3521 29.3148C53.0314 28.994 52.8512 28.559 52.8512 28.1054C52.8512 27.6517 53.0314 27.2167 53.3521 26.8959L59.3994 20.8485C59.7202 20.5278 60.1553 20.3476 60.6089 20.3476C61.0625 20.3476 61.4976 20.5278 61.8184 20.8485L65.3989 24.4256C65.8266 24.2289 66.268 24.0458 66.7179 23.8816V18.8179C66.7179 18.3642 66.8981 17.9291 67.2189 17.6082C67.5398 17.2874 67.9749 17.1072 68.4286 17.1072H76.9822C77.4359 17.1072 77.871 17.2874 78.1918 17.6082C78.5126 17.9291 78.6929 18.3642 78.6929 18.8179V23.8816C79.1428 24.0458 79.5824 24.2289 80.0118 24.4256L83.5924 20.8485C83.9132 20.5278 84.3482 20.3476 84.8018 20.3476C85.2555 20.3476 85.6905 20.5278 86.0113 20.8485L92.0587 26.8959C92.3794 27.2167 92.5596 27.6517 92.5596 28.1054C92.5596 28.559 92.3794 28.994 92.0587 29.3148L88.4816 32.8954C88.68 33.323 88.8596 33.7644 89.0239 34.2143H94.0893C94.543 34.2143 94.9781 34.3946 95.299 34.7154C95.6198 35.0362 95.8 35.4713 95.8 35.925V44.4786C95.8 44.9323 95.6198 45.3674 95.299 45.6883C94.9781 46.0091 94.543 46.1893 94.0893 46.1893H89.0256C88.8596 46.6392 88.68 47.0789 88.4816 47.5083L92.0587 51.0888C92.3794 51.4096 92.5596 51.8447 92.5596 52.2983C92.5596 52.7519 92.3794 53.1869 92.0587 53.5077L86.0113 59.5551C85.6905 59.8758 85.2555 60.056 84.8018 60.056C84.3482 60.056 83.9132 59.8758 83.5924 59.5551L80.0118 55.978C79.5842 56.1748 79.1428 56.3578 78.6929 56.522V61.5857C78.6929 62.0394 78.5126 62.4746 78.1918 62.7954C77.871 63.1162 77.4359 63.2965 76.9822 63.2965ZM70.1393 59.875H75.2714V55.2766C75.2716 54.9041 75.3932 54.5418 75.618 54.2448C75.8428 53.9478 76.1584 53.7322 76.5168 53.6309C77.5592 53.3389 78.5635 52.9249 79.5089 52.3975C79.8342 52.2157 80.21 52.1449 80.5792 52.1959C80.9484 52.2468 81.2909 52.4167 81.5549 52.6798L84.8018 55.9267L88.4303 52.3L85.185 49.0496C84.9222 48.7862 84.7523 48.4444 84.7011 48.0759C84.6499 47.7073 84.7201 47.3321 84.9011 47.007C85.4281 46.0607 85.8426 45.056 86.1362 44.0133C86.2375 43.6548 86.4531 43.3392 86.7501 43.1145C87.0471 42.8897 87.4094 42.768 87.7819 42.7679H92.3786V37.6357H87.7802C87.4082 37.6354 87.0465 37.5138 86.7498 37.2893C86.4532 37.0649 86.2377 36.7499 86.1362 36.3921C85.8426 35.3494 85.4281 34.3446 84.9011 33.3983C84.7192 33.0728 84.6486 32.6969 84.6998 32.3277C84.7511 31.9584 84.9214 31.6159 85.185 31.3523L88.4303 28.1054L84.8035 24.4769L81.5532 27.7239C81.2896 27.9871 80.9474 28.157 80.5784 28.208C80.2094 28.2589 79.8339 28.1881 79.5089 28.0061C78.563 27.4786 77.5581 27.0646 76.5151 26.7727C76.157 26.6711 75.8418 26.4554 75.6173 26.1584C75.3929 25.8614 75.2715 25.4993 75.2714 25.127V20.5286H70.1393V25.127C70.1392 25.4995 70.0175 25.8618 69.7927 26.1588C69.5679 26.4558 69.2524 26.6714 68.8939 26.7727C67.8515 27.0648 66.8472 27.4788 65.9019 28.0061C65.5764 28.1876 65.2008 28.2583 64.8316 28.2073C64.4625 28.1564 64.12 27.9867 63.8559 27.7239L60.6089 24.4769L56.9805 28.1036L60.2257 31.354C60.4885 31.6174 60.6584 31.9592 60.7097 32.3278C60.7609 32.6963 60.6907 33.0715 60.5097 33.3966C59.9826 34.3429 59.5681 35.3477 59.2746 36.3903C59.1732 36.7488 58.9577 37.0644 58.6607 37.2892C58.3636 37.5139 58.0014 37.6356 57.6289 37.6357H53.0322V42.7679H57.6306C58.0025 42.7683 58.3643 42.8899 58.6609 43.1143C58.9576 43.3387 59.173 43.6537 59.2746 44.0116C59.5681 45.0542 59.9826 46.059 60.5097 47.0053C60.6915 47.3308 60.7622 47.7067 60.7109 48.076C60.6597 48.4452 60.4893 48.7877 60.2257 49.0513L56.9805 52.2983L60.6072 55.9267L63.8576 52.6798C64.1217 52.4176 64.4639 52.2483 64.8326 52.1974C65.2013 52.1465 65.5765 52.2167 65.9019 52.3975C66.8478 52.925 67.8526 53.339 68.8956 53.6309C69.2537 53.7325 69.569 53.9482 69.7934 54.2452C70.0179 54.5422 70.1393 54.9044 70.1393 55.2766V59.875Z" fill="#0EC8DB"></path>
                  <path d="M72.7051 51.0767C70.5542 51.0767 68.4516 50.4389 66.6633 49.2439C64.8749 48.049 63.481 46.3505 62.6579 44.3634C61.8348 42.3762 61.6194 40.1896 62.039 38.0801C62.4587 35.9705 63.4944 34.0328 65.0153 32.5119C66.5362 30.991 68.4739 29.9552 70.5835 29.5356C72.693 29.116 74.8796 29.3314 76.8668 30.1545C78.8539 30.9776 80.5524 32.3715 81.7473 34.1598C82.9423 35.9482 83.5801 38.0508 83.5801 40.2017C83.5769 43.0849 82.4302 45.8492 80.3914 47.888C78.3526 49.9267 75.5884 51.0735 72.7051 51.0767ZM72.7051 32.7481C71.2309 32.7481 69.7898 33.1852 68.5641 34.0042C67.3384 34.8233 66.383 35.9873 65.8189 37.3493C65.2547 38.7113 65.1071 40.2099 65.3947 41.6558C65.6823 43.1016 66.3922 44.4297 67.4346 45.4721C68.477 46.5146 69.8051 47.2244 71.251 47.512C72.6968 47.7996 74.1955 47.652 75.5575 47.0879C76.9194 46.5237 78.0835 45.5684 78.9025 44.3427C79.7215 43.1169 80.1587 41.6759 80.1587 40.2017C80.1564 38.2256 79.3704 36.331 77.9731 34.9337C76.5757 33.5364 74.6812 32.7504 72.7051 32.7481Z" fill="#0EC8DB"></path>
                </svg>