<svg width="61" height="61" viewBox="0 0 61 61" fill="none" xmlns="http://www.w3.org/2000/svg">
                  <path d="M59.0625 60.875H1.6875C1.23995 60.875 0.810725 60.6972 0.494258 60.3807C0.17779 60.0643 0 59.6351 0 59.1875V1.8125C0 1.36495 0.17779 0.935725 0.494258 0.619258C0.810725 0.30279 1.23995 0.125 1.6875 0.125H59.0625C59.5101 0.125 59.9393 0.30279 60.2557 0.619258C60.5722 0.935725 60.75 1.36495 60.75 1.8125V59.1875C60.75 59.6351 60.5722 60.0643 60.2557 60.3807C59.9393 60.6972 59.5101 60.875 59.0625 60.875ZM3.375 57.5H57.375V3.5H3.375V57.5Z" fill="#FF2759"></path>
                  <path d="M8.4375 10.25C9.36948 10.25 10.125 9.49448 10.125 8.5625C10.125 7.63052 9.36948 6.875 8.4375 6.875C7.50552 6.875 6.75 7.63052 6.75 8.5625C6.75 9.49448 7.50552 10.25 8.4375 10.25Z" fill="#FF2759"></path>
                  <path d="M15.1875 10.25C16.1195 10.25 16.875 9.49448 16.875 8.5625C16.875 7.63052 16.1195 6.875 15.1875 6.875C14.2555 6.875 13.5 7.63052 13.5 8.5625C13.5 9.49448 14.2555 10.25 15.1875 10.25Z" fill="#FF2759"></path>
                  <path d="M21.9375 10.25C22.8695 10.25 23.625 9.49448 23.625 8.5625C23.625 7.63052 22.8695 6.875 21.9375 6.875C21.0055 6.875 20.25 7.63052 20.25 8.5625C20.25 9.49448 21.0055 10.25 21.9375 10.25Z" fill="#FF2759"></path>
                  <path d="M25.3125 17H1.6875C1.23995 17 0.810725 16.8222 0.494258 16.5058C0.17779 16.1893 0 15.7601 0 15.3125C0 14.865 0.17779 14.4358 0.494258 14.1193C0.810725 13.8028 1.23995 13.625 1.6875 13.625H24.6206L30.8644 7.3644C31.0221 7.208 31.2091 7.08427 31.4147 7.00029C31.6203 6.91631 31.8404 6.87374 32.0625 6.87503H59.0625C59.5101 6.87503 59.9393 7.05282 60.2557 7.36929C60.5722 7.68575 60.75 8.11498 60.75 8.56253C60.75 9.01008 60.5722 9.4393 60.2557 9.75577C59.9393 10.0722 59.5101 10.25 59.0625 10.25H32.7544L26.5106 16.5107C26.3529 16.6671 26.1659 16.7908 25.9603 16.8748C25.7547 16.9587 25.5346 17.0013 25.3125 17ZM17.8706 44C17.6485 44.0013 17.4284 43.9587 17.2228 43.8748C17.0172 43.7908 16.8302 43.6671 16.6725 43.5107L9.9225 36.7607C9.76433 36.6038 9.63879 36.4171 9.55312 36.2115C9.46745 36.0059 9.42334 35.7853 9.42334 35.5625C9.42334 35.3398 9.46745 35.1192 9.55312 34.9136C9.63879 34.7079 9.76433 34.5213 9.9225 34.3644L16.6725 27.6144C16.9887 27.3001 17.4164 27.1237 17.8622 27.1237C18.308 27.1237 18.7357 27.3001 19.0519 27.6144C19.21 27.7713 19.3356 27.9579 19.4213 28.1636C19.5069 28.3692 19.551 28.5898 19.551 28.8125C19.551 29.0353 19.5069 29.2559 19.4213 29.4615C19.3356 29.6671 19.21 29.8538 19.0519 30.0107L13.5 35.5625L19.0519 41.1144C19.2888 41.3494 19.4508 41.6494 19.5173 41.9765C19.5837 42.3036 19.5517 42.643 19.4253 42.9518C19.2988 43.2607 19.0836 43.5251 18.8069 43.7117C18.5302 43.8983 18.2044 43.9986 17.8706 44ZM43.1831 44C42.8479 44.002 42.5198 43.9041 42.2405 43.7188C41.9612 43.5335 41.7433 43.2692 41.6148 42.9597C41.4863 42.6501 41.4528 42.3093 41.5188 41.9806C41.5847 41.652 41.747 41.3504 41.985 41.1144L47.5369 35.5625L41.985 30.0107C41.8268 29.8538 41.7013 29.6671 41.6156 29.4615C41.5299 29.2559 41.4858 29.0353 41.4858 28.8125C41.4858 28.5898 41.5299 28.3692 41.6156 28.1636C41.7013 27.9579 41.8268 27.7713 41.985 27.6144C42.3012 27.3001 42.7289 27.1237 43.1747 27.1237C43.6205 27.1237 44.0482 27.3001 44.3644 27.6144L51.1144 34.3644C51.2725 34.5213 51.3981 34.7079 51.4838 34.9136C51.5694 35.1192 51.6135 35.3398 51.6135 35.5625C51.6135 35.7853 51.5694 36.0059 51.4838 36.2115C51.3981 36.4171 51.2725 36.6038 51.1144 36.7607L44.3644 43.5107C44.0501 43.8224 43.6258 43.9982 43.1831 44ZM27 44C26.7353 44.0032 26.474 43.9393 26.2406 43.8144C25.8432 43.6121 25.542 43.2607 25.4028 42.837C25.2637 42.4133 25.298 41.9517 25.4981 41.5532L32.2481 28.0532C32.3373 27.8389 32.4698 27.6454 32.6371 27.4847C32.8045 27.324 33.0033 27.1995 33.2209 27.119C33.4386 27.0386 33.6705 27.0039 33.9022 27.0171C34.1338 27.0303 34.3603 27.0912 34.5674 27.1959C34.7745 27.3006 34.9577 27.4469 35.1057 27.6257C35.2537 27.8044 35.3633 28.0117 35.4275 28.2347C35.4917 28.4577 35.5093 28.6915 35.4791 28.9216C35.4489 29.1517 35.3715 29.3731 35.2519 29.5719L28.5019 43.0719C28.3616 43.3502 28.1471 43.5842 27.882 43.748C27.6169 43.9119 27.3116 43.9991 27 44Z" fill="#FF2759"></path>
                </svg>