<svg width="80" height="80" viewBox="0 0 80 80" fill="none" xmlns="http://www.w3.org/2000/svg">
<path d="M43.0663 7.53354L64.7663 19.2335C67.2997 20.6002 67.2997 24.5002 64.7663 25.8669L43.0663 37.5669C41.133 38.6002 38.8663 38.6002 36.933 37.5669L15.233 25.8669C12.6997 24.5002 12.6997 20.6002 15.233 19.2335L36.933 7.53354C38.8663 6.50021 41.133 6.50021 43.0663 7.53354Z" stroke="#FE5802" stroke-width="3" stroke-linecap="round" stroke-linejoin="round"></path>
<path d="M12.0337 33.7667L32.2003 43.8667C34.7003 45.1333 36.3003 47.7 36.3003 50.5V69.5667C36.3003 72.3333 33.4003 74.1 30.9337 72.8667L10.767 62.7667C8.26699 61.5 6.66699 58.9333 6.66699 56.1333V37.0667C6.66699 34.3 9.56699 32.5333 12.0337 33.7667Z" stroke="#FE5802" stroke-width="3" stroke-linecap="round" stroke-linejoin="round"></path>
<path d="M67.9659 33.7667L47.7992 43.8667C45.2992 45.1333 43.6992 47.7 43.6992 50.5V69.5667C43.6992 72.3333 46.5992 74.1 49.0659 72.8667L69.2326 62.7667C71.7326 61.5 73.3326 58.9333 73.3326 56.1333V37.0667C73.3326 34.3 70.4326 32.5333 67.9659 33.7667Z" stroke="#FE5802" stroke-width="3" stroke-linecap="round" stroke-linejoin="round"></path>
</svg>