<svg width="71" height="71" viewBox="0 0 71 71" fill="none" xmlns="http://www.w3.org/2000/svg">
                  <path d="M57.2404 43.844C56.7987 43.844 56.5043 43.844 56.3571 43.844C56.5043 43.5495 56.6515 43.2551 56.7987 42.9607L64.4538 41.1941C65.1899 41.0469 65.6315 40.458 65.6315 39.722V30.5948C65.6315 29.8587 65.1899 29.2698 64.4538 29.1226L56.6515 27.3561C56.3571 26.7672 56.2099 26.1784 55.9154 25.5895L60.0374 18.9649C60.3318 18.376 60.3318 17.64 59.8902 17.1983L53.4128 10.721C52.9712 10.2793 52.2351 10.1321 51.6463 10.5737L44.8744 14.6957C44.2856 14.4013 43.6967 14.2541 43.1079 13.9596L41.1941 6.15734C41.0469 5.42127 40.458 4.97963 39.722 4.97963H30.5948C29.8587 4.97963 29.2698 5.42127 29.1226 6.15734L27.2088 13.9596C26.9144 14.1069 26.7672 14.1069 26.4728 14.2541C26.4728 13.9596 26.4728 13.6652 26.4728 13.518C26.4728 9.98489 25.1479 6.59898 22.498 3.94914C18.8177 0.268808 13.6652 -0.908899 8.80718 0.710447C8.51275 0.857661 8.21833 1.2993 8.07111 1.74094C7.9239 2.18258 8.07111 2.77143 8.51275 3.06586L14.1069 8.80718L8.80718 14.1069L3.06586 8.51276C2.77143 8.07111 2.18258 7.9239 1.74094 8.07111C1.2993 8.21833 0.857661 8.51275 0.710447 8.95439C-0.908899 13.8124 0.268808 19.1121 3.94914 22.7924C6.45177 25.2951 9.83767 26.7672 13.518 26.7672C13.8124 26.7672 14.1069 26.7672 14.2541 26.7672C14.1069 27.0616 13.9596 27.3561 13.8124 27.6505L6.15734 29.417C5.42127 29.5643 4.97963 30.1531 4.97963 30.8892V40.0164C4.97963 40.7525 5.42127 41.3413 6.15734 41.4885L13.9596 43.2551C14.1069 43.844 14.4013 44.4328 14.6957 45.0217L10.5737 51.7935C10.2793 52.3823 10.2793 53.1184 10.721 53.56L17.1983 60.0374C17.64 60.4791 18.376 60.6263 18.9649 60.1846L25.7367 56.0627C26.3256 56.3571 26.9144 56.5043 27.5033 56.7987L29.2698 64.4538C29.417 65.1899 30.0059 65.6315 30.742 65.6315H39.8692C40.6053 65.6315 41.1941 65.1899 41.3413 64.4538L43.2551 56.6515C43.5495 56.5043 43.6967 56.5043 43.9912 56.3571C43.9912 56.6515 43.9912 56.9459 43.9912 57.2404C43.9912 60.9207 45.3161 64.3066 47.9659 66.8092C50.4686 69.3119 53.8545 70.784 57.3876 70.784C58.8597 70.784 60.3318 70.4896 61.804 70.0479C62.2456 69.9007 62.6873 69.4591 62.8345 69.0174C62.9817 68.5758 62.8345 67.9869 62.3928 67.6925L56.5043 61.804L61.804 56.5043L67.3981 62.0984C67.6925 62.3928 68.2814 62.5401 68.723 62.5401C69.1646 62.3928 69.6063 62.0984 69.7535 61.5096C71.3728 56.6515 70.1951 51.3518 66.5148 47.8187C64.1594 45.3161 60.9207 43.844 57.2404 43.844ZM29.1226 16.4623C29.5643 16.3151 30.0059 15.8734 30.1531 15.4318L31.9197 8.07111H38.6915L40.458 15.4318C40.6053 15.8734 40.8997 16.3151 41.4885 16.4623C42.519 16.7567 43.4023 17.1983 44.4328 17.64C44.8744 17.9344 45.4633 17.7872 45.9049 17.64L52.3823 13.6652L57.2404 18.5233L52.9712 24.7062C52.6768 25.1479 52.6768 25.7367 52.9712 26.1784C53.4128 27.0616 53.8545 27.9449 54.1489 28.9754C54.2961 29.417 54.7377 29.8587 55.1794 30.0059L62.54 31.7725V38.5443L55.1794 40.3108C54.7377 40.458 54.2961 40.7525 54.1489 41.3413C53.8545 42.0774 53.56 42.8135 53.4128 43.4023L48.8492 38.8387C50.0269 34.1279 48.702 28.9754 45.1689 25.4423C41.6358 21.9092 36.6305 20.5842 31.9197 21.762L27.3561 17.1983C27.7977 16.9039 28.3866 16.6095 29.1226 16.4623ZM46.3466 36.1889L34.4223 24.2646C37.661 23.9702 40.7525 25.1479 43.1079 27.5033C45.4633 29.8587 46.4938 32.9502 46.3466 36.1889ZM41.4885 54.1489C41.3413 54.1489 41.0469 54.2961 40.8997 54.4433C40.7525 54.5905 40.6053 54.885 40.458 55.1794L38.6915 62.5401H31.9197L30.1531 55.1794C30.0059 54.7377 29.7115 54.2961 29.1226 54.1489C28.0921 53.8545 27.2088 53.4128 26.1784 52.9712C25.7367 52.6768 25.1479 52.824 24.7062 52.9712L18.2288 56.9459L13.3708 52.0879L17.3456 45.7577C17.64 45.3161 17.64 44.7272 17.3456 44.2856C16.9039 43.2551 16.4623 42.3718 16.1678 41.4885C16.0206 41.0469 15.579 40.6053 15.1374 40.458L7.77669 38.6915V31.7725L15.1374 30.0059C15.579 29.8587 16.0206 29.5643 16.1678 28.9754C16.3151 28.2393 16.6095 27.6505 16.9039 26.9144L21.4675 31.478C20.2898 36.1889 21.6147 41.3413 25.1479 44.7272C27.7977 47.3771 31.3308 48.8492 35.0112 48.8492C36.1889 48.8492 37.3666 48.702 38.5443 48.4076L43.1079 52.9712C42.8135 53.7072 42.2246 53.8545 41.4885 54.1489ZM24.2646 34.4223L36.1889 46.3466C32.9502 46.641 29.8587 45.4633 27.5033 43.1079C25.1479 40.7525 24.1174 37.661 24.2646 34.4223ZM67.6925 58.1236L62.9817 53.4128C62.3928 52.824 61.5096 52.824 60.9207 53.4128L53.56 60.7735C53.1184 61.0679 52.9712 61.5096 52.9712 61.804C52.9712 62.0984 53.1184 62.5401 53.4128 62.8345L58.1236 67.5453C55.0322 67.8397 52.0879 66.8092 49.8797 64.4538C47.9659 62.5401 46.7882 59.8902 46.7882 56.9459C46.7882 55.9155 46.9354 55.0322 47.2299 54.0017C47.3771 53.4128 47.2299 52.9712 46.9354 52.5295C32.3613 38.2499 23.9702 29.8587 17.7872 23.6757C17.3456 23.2341 16.9039 23.0869 16.3151 23.3813C15.4318 23.6757 14.4013 23.8229 13.3708 23.8229C10.5737 23.8229 7.9239 22.7924 6.01013 20.7315C3.80193 18.5233 2.62422 15.4318 2.91865 12.4875L7.62947 17.1983C8.21833 17.7872 9.10161 17.7872 9.69046 17.1983L17.0511 9.83767C17.4928 9.54325 17.64 9.10161 17.64 8.80718C17.64 8.51275 17.4928 8.07111 17.1983 7.77669L12.4875 2.91865C15.579 2.62422 18.5233 3.65471 20.7315 6.01013C22.7924 8.07111 23.8229 10.5737 23.8229 13.518C23.8229 14.5485 23.6757 15.579 23.3813 16.4623C23.2341 17.0511 23.3813 17.4928 23.8229 17.9344L52.9712 47.0826L53.1184 47.2299C54.0017 47.9659 54.885 47.3771 55.621 47.2299C58.8597 46.641 62.3928 47.6715 64.8955 50.1741C66.8092 52.0879 67.9869 55.1794 67.6925 58.1236Z" fill="#B400AA"></path>
                </svg>